<svg width="16" height="16" xmlns="http://www.w3.org/2000/svg" viewbox="0 0 16 16"><g fill="none" fill-rule="evenodd"><path d="M0 1.777C0 .796.796 0 1.777 0h12.446C15.204 0 16 .796 16 1.777v12.446c0 .981-.796 1.777-1.777 1.777H1.777A1.778 1.778 0 0 1 0 14.223V1.777z" fill="#2684FF"/><path d="M3.69 7.996A2.675 2.675 0 0 1 3 6.2c0-1.491 1.221-2.7 2.727-2.7.949 0 1.784.48 2.273 1.207A2.732 2.732 0 0 1 10.273 3.5C11.779 3.5 13 4.709 13 6.2c0 .69-.26 1.318-.69 1.795L8.36 12.122a.5.5 0 0 1-.722 0L3.69 7.996z" fill="#FFF"/></g></svg>