<svg width="16" height="16" xmlns="http://www.w3.org/2000/svg" viewbox="0 0 16 16"><g fill="none" fill-rule="evenodd"><path d="M0 1.777C0 .796.796 0 1.777 0h12.446C15.204 0 16 .796 16 1.777v12.446c0 .981-.796 1.777-1.777 1.777H1.777A1.778 1.778 0 0 1 0 14.223V1.777z" fill="#36B37E"/><path d="M6.78 8.662c0-.966.672-1.428 1.232-1.834.434-.308.812-.574.812-.994 0-.434-.322-.798-1.092-.798-.49 0-.896.154-1.246.448a.905.905 0 0 1-.476.14.856.856 0 1 1-.49-1.568 4.009 4.009 0 0 1 2.422-.784c1.806 0 2.912.91 2.912 2.212 0 1.162-.756 1.722-1.414 2.184-.476.364-.924.672-.924 1.162 0 .042.014.238.014.266-.042.406-.406.77-.84.77a.798.798 0 0 1-.77-.588 1.367 1.367 0 0 1-.14-.616zm0 3.108c0-.616.518-1.134 1.134-1.134.616 0 1.134.518 1.134 1.134 0 .616-.518 1.134-1.134 1.134A1.147 1.147 0 0 1 6.78 11.77z" fill="#FFF"/></g></svg>