<svg width="16" height="16" xmlns="http://www.w3.org/2000/svg" viewbox="0 0 16 16"><g fill="none" fill-rule="evenodd"><path d="M0 2.002A2 2 0 0 1 2.002 0h11.996A2 2 0 0 1 16 2.002v11.996A2 2 0 0 1 13.998 16H2.002A2 2 0 0 1 0 13.998V2.002z" fill="#FF991F"/><path d="M8 9.5a2.5 2.5 0 1 0 0-5 2.5 2.5 0 0 0 0 5zM8 11a4 4 0 1 1 0-8 4 4 0 0 1 0 8z" fill="#FFF" fill-rule="nonzero"/><path d="M4.5 6.75h7a.5.5 0 0 1 .5.5v4.5a1 1 0 0 1-1 1H5a1 1 0 0 1-1-1v-4.5a.5.5 0 0 1 .5-.5z" fill="#FFF"/><path d="M8 8.25a1 1 0 0 1 1 1v1a1 1 0 0 1-2 0v-1a1 1 0 0 1 1-1z" fill="#FF991F"/></g></svg>