<svg xmlns="http://www.w3.org/2000/svg" xmlns:xlink="http://www.w3.org/1999/xlink" viewBox="0 0 24 24">
  <path d="M12 24C5.4 24 0 18.6 0 12S5.4 0 12 0s12 5.4 12 12-5.4 12-12 12z" fill="#c1c7d0"/>
  <path d="M19.5 12c0-.9-.6-1.7-1.5-1.9-.2-3.1-2.8-5.6-6-5.6S6.2 7 6 10.1c-.9.2-1.5 1-1.5 1.9 0 1 .7 1.8 1.7 2 .6 2.8 3 5.5 5.8 5.5s5.2-2.7 5.8-5.5c1-.2 1.7-1 1.7-2z" fill="#f4f5f7"/>
  <defs>
    <path id="a" d="M5 23c-2.2 0-4-1.8-4-4s1.8-4 4-4 4 1.8 4 4-1.8 4-4 4z"/>
  </defs>
  <use xlink:href="#a" overflow="visible" fill-rule="evenodd" clip-rule="evenodd" fill="#42526e"/>
  <clipPath id="b">
    <use xlink:href="#a" overflow="visible"/>
  </clipPath>
  <g clip-path="url(#b)">
    <defs>
      <path id="c" d="M-1.9 12.1h13.7v13.7H-1.9z"/>
    </defs>
    <use xlink:href="#c" overflow="visible" fill="#42526e"/>
  </g>
  <path d="M4.3 17.2v1.2H3.2c-.4 0-.7.3-.7.7 0 .4.3.7.7.7h1.2V21c0 .4.3.7.7.7.4 0 .7-.3.7-.7v-1.2H7c.4 0 .7-.3.7-.7 0-.4-.3-.7-.7-.7H5.7v-1.2c0-.4-.3-.7-.7-.7-.4 0-.7.3-.7.7z" fill-rule="evenodd" clip-rule="evenodd" fill="#fff"/>
</svg>