<svg xmlns="http://www.w3.org/2000/svg" viewBox="0 0 24 24">
  <path d="M12 24C5.4 24 0 18.6 0 12S5.4 0 12 0s12 5.4 12 12-5.4 12-12 12z" fill="#c1c7d0"/>
  <path d="M19.5 12c0-.9-.6-1.7-1.5-1.9-.2-3.1-2.8-5.6-6-5.6S6.2 7 6 10.1c-.9.2-1.5 1-1.5 1.9 0 1 .7 1.8 1.7 2 .6 2.8 3 5.5 5.8 5.5s5.2-2.7 5.8-5.5c1-.2 1.7-1 1.7-2z" fill="#f4f5f7"/>
  <path d="M14.4 10.2c0 1.1-.7 2-1.8 2.3v.8c0 .4-.3.7-.7.7s-.7-.3-.7-.7v-1.4c0-.4.3-.7.7-.7.6 0 1.1-.5 1.1-1.1s-.4-1-1-1-1.1.5-1.1 1.1c0 .4-.3.7-.7.7s-.7-.3-.7-.7c0-1.4 1.1-2.4 2.4-2.4s2.5 1 2.5 2.4m-1.7 5.2c0 .4-.3.7-.7.7s-.7-.3-.7-.7.3-.7.7-.7.7.4.7.7" fill-rule="evenodd" clip-rule="evenodd" fill="#42526e"/>
</svg>