<svg xmlns="http://www.w3.org/2000/svg" viewBox="0 0 128 128"><path d="M116.1 128h-104c-6.6 0-12-5.4-12-12V12c0-6.6 5.4-12 12-12h104c6.6 0 12 5.4 12 12v104c0 6.6-5.4 12-12 12z" fill="#6554c0"/><path d="M71 21.1c-3.2-.7-6.5-1.2-9.8-1.2-23.5 0-42.6 19.1-42.6 42.6s19.1 42.6 42.6 42.6c3.4 0 6.7-.4 9.8-1.2V21.1z" fill="#4ac6c6"/><path d="M69.6 104.2C85.4 101 98 89.1 102.2 73.7l-32.6 1.8v28.7z" fill="#e5830e"/><path d="M69.6 31.1c-1.3-.2-2.7-.3-4-.3-19 0-34.4 15.4-34.4 34.4s15.4 34.4 34.4 34.4c1.4 0 2.7-.1 4-.3V31.1z" fill="#fff"/><circle cx="52.4" cy="56.6" r="8.8" fill="#2a5083"/><path d="M69.6 75.5s13.3 14 32.6-1.8c0 0 6.2-6.2 14.2 1.2.9.8 2.3.1 2.2-1.1-.9-11.3-7.1-45.5-49-53v54.7z" fill="#ffbd17"/><ellipse transform="rotate(-73.854 79.771 31.141)" cx="79.8" cy="31.1" rx="2.1" ry="4.2" fill="#f2900f"/></svg>