<svg id="cd" xmlns="http://www.w3.org/2000/svg" viewBox="0 0 128 128"><style>.st1{fill:#2a5083}.st2{fill:#fff}</style><path d="M116 128H12c-6.6 0-12-5.4-12-12V12C0 5.4 5.4 0 12 0h104c6.6 0 12 5.4 12 12v104c0 6.6-5.4 12-12 12z" fill="#ff5630"/><circle class="st1" cx="65.2" cy="64" r="48.7"/><path class="st2" d="M51 37.5l-3.7-2.2c-1-.6-1.7-1.7-1.7-3v-5.9c-3.7 1.8-7.2 4.2-10.2 7.2s-5.5 6.5-7.2 10.2l.1.1H34c1.2 0 2.3.6 3 1.7l2 3.2c.1.2.3.3.5.4l21.7 10.4.4-.4L51 37.5zM79.6 89.5l3.7 2.2c1 .6 1.7 1.7 1.7 3v5.9c3.7-1.8 7.2-4.2 10.2-7.2s5.5-6.5 7.2-10.2l-.1-.1h-5.7c-1.2 0-2.3-.6-3-1.7l-2-3.2c-.1-.2-.3-.3-.5-.4L69.5 67.3l-.4.4 10.5 21.8z"/><circle cx="65.2" cy="63.9" r="20.5" fill="#4ac6c6"/><circle class="st1" cx="65.2" cy="63.9" r="7.1"/></svg>