<svg id="Cloud" xmlns="http://www.w3.org/2000/svg" viewBox="0 0 128 128"><style>.st3{fill:#333}.st4{fill:#e4f2f9}</style><path d="M116 128H12c-6.6 0-12-5.4-12-12V12C0 5.4 5.4 0 12 0h104c6.6 0 12 5.4 12 12v104c0 6.6-5.4 12-12 12z" fill="#4c9aff"/><path d="M101.4 76.9c0-8.6-6.4-15.8-14.7-17 .9-2.6 1.4-5.3 1.4-8.2C88.1 41 80.2 31 70.8 27c-6.9 1.7-12.7 6.2-16.1 12.2-2.9-3.4-7.1-5.5-11.9-5.5-8.7 0-15.7 7-15.7 15.7 0 2 .4 4 1.1 5.8-9 1.7-15.9 9.7-15.9 19.2C12.4 85.3 21.2 94 32 94h56.2c7.4-2.3 13.2-9.4 13.2-17.1z" fill="#fff"/><path d="M70.3 67.7H55.8c-.3 0-.6.3-.6.6 0 2.8 1.4 5.2 3.6 6.6h.1c1.2.8 2.6 1.2 4.2 1.2 1.5 0 3-.4 4.2-1.2 2.2-1.4 3.7-3.9 3.7-6.7-.1-.2-.3-.5-.7-.5z" fill="#ff4e4a"/><circle class="st3" cx="51.7" cy="61" r="2.8"/><circle class="st3" cx="74.4" cy="61" r="2.8"/><path class="st4" d="M69.4 27.4zM100.8 59.9c.9-2.6 1.4-5.3 1.4-8.2 0-14-11.3-25.4-25.3-25.4-2.5 0-5 .3-7.2 1 .4-.1.7-.2 1.1-.3 9.4 4 17.3 14 17.3 24.7 0 2.9-.5 5.6-1.4 8.2 8.3 1.2 14.7 8.4 14.7 17 0 7.7-5.8 14.8-13.2 17.1h-3.6l13.8.1c9.5 0 17.2-7.7 17.2-17.2-.1-8.7-6.5-15.8-14.8-17z"/></svg>