<svg id="coffee" xmlns="http://www.w3.org/2000/svg" viewBox="0 0 128 128"><style>.st2{opacity:.1;fill:#211618;enable-background:new}</style><path d="M116 128H12c-6.6 0-12-5.4-12-12V12C0 5.4 5.4 0 12 0h104c6.6 0 12 5.4 12 12v104c0 6.6-5.4 12-12 12z" fill="#00b8d9"/><path d="M64.8 37.2H34.4l7.9 68.5c.1 1.3 1.3 2.3 2.6 2.3h37.3c2 0 3.7-1.5 3.9-3.5l7.8-67.3H64.8z" fill="#ff4e4a"/><path class="st2" d="M63.5 37.1h-29v1.5l7.8 67.1c.1 1.3 1.3 2.3 2.6 2.3h19.9V37.1h-1.3z"/><path class="st2" d="M40.8 92.9h46.7l.4-4H40.3l.5 4zm52.7-51.7l.4-4H34.4l.4 4h58.7z"/><path d="M68.7 52.9H34.4c-.8 0-1.4.7-1.3 1.5l4.2 33.3c.1.7.6 1.2 1.3 1.2h51c.7 0 1.2-.5 1.3-1.2l4.2-33.3c.1-.8-.5-1.5-1.3-1.5H68.7z" fill="#fff"/><circle cx="64.2" cy="70.9" r="11.5" fill="#4ac6c6"/><path d="M86 20.9c-.5-.8-1.3-1.4-2.2-1.4h-39c-.9 0-1.8.5-2.2 1.4l-4.8 8.6h52.9L86 20.9z" fill="#2a5083"/><path d="M95.2 37.2H33.4c-1.7 0-3.1-1.4-3.1-3.1v-2.2c0-1.7 1.4-3.1 3.1-3.1h61.8c1.7 0 3.1 1.4 3.1 3.1v2.2c0 1.7-1.4 3.1-3.1 3.1z" fill="#194063"/><path class="st2" d="M64.8 19.5h-20c-.9 0-1.8.5-2.2 1.4l-4.4 7.9h-4.8c-1.7 0-3.1 1.4-3.1 3.1v2.2c0 1.7 1.4 3.1 3.1 3.1h31.4V19.5z"/><path d="M38.6 88.9h26.2v-36H34.4c-.8 0-1.4.7-1.3 1.5l4.2 33.3c.1.7.6 1.2 1.3 1.2z" opacity=".2" fill="#4ac6c6"/></svg>