<svg width="16" height="16" xmlns="http://www.w3.org/2000/svg" viewbox="0 0 16 16"><g fill="none" fill-rule="evenodd"><path d="M0 1.777C0 .796.796 0 1.777 0h12.446C15.204 0 16 .796 16 1.777v12.446c0 .981-.796 1.777-1.777 1.777H1.777A1.778 1.778 0 0 1 0 14.223V1.777z" fill="#FF5630"/><path d="M7.267 6.966l-1.373 5.525c-.232.936-1.525 1.033-1.894.142l-2.174-5.25a1 1 0 0 1 1.848-.766l1.012 2.444L6.127 3.26c.24-.962 1.582-1.028 1.913-.093L9.476 7.21l.88-1.573a1 1 0 0 1 1.693-.083l1.522 2.187a1 1 0 0 1-1.642 1.143l-.608-.875-1.176 2.104c-.42.75-1.528.657-1.816-.154L7.267 6.966z" fill="#FFF" fill-rule="nonzero"/></g></svg>