<svg id="design" xmlns="http://www.w3.org/2000/svg" viewBox="0 0 128 128"><style>.st1{fill:#2a5083}.st5{fill:#153a56}</style><path d="M116 128H12c-6.6 0-12-5.4-12-12V12C0 5.4 5.4 0 12 0h104c6.6 0 12 5.4 12 12v104c0 6.6-5.4 12-12 12z" fill="#ffc400"/><path class="st1" d="M42.2 111.8c-2.4 0-4.3-1.9-4.3-4.3V22.2c0-2.4 1.9-4.3 4.3-4.3s4.3 1.9 4.3 4.3v85.3c0 2.3-1.9 4.3-4.3 4.3zM85.8 111.8c-2.4 0-4.3-1.9-4.3-4.3V22.2c0-2.4 1.9-4.3 4.3-4.3s4.3 1.9 4.3 4.3v85.3c-.1 2.3-2 4.3-4.3 4.3z"/><path class="st1" d="M38 98v-2.1c0-1.8 1.4-3.2 3.2-3.2h45.6c1.8 0 3.2 1.4 3.2 3.2V98c0 1.8-1.4 3.2-3.2 3.2H41.2c-1.8 0-3.2-1.4-3.2-3.2z"/><path d="M102.9 31.1c-.2-2.8-2.6-5-5.4-5h-67c-2.9 0-5.2 2.2-5.4 5l-3.7 46.7c-.3 3.2 2.3 5.9 5.4 5.9h74.4c3.2 0 5.7-2.7 5.4-5.9l-3.7-46.7z" fill="#fff"/><path d="M32.9 75.4h62.7c2.4 0 3.6-2.9 1.9-4.5l-13-13c-1-1-2.7-1-3.7 0l-9 8.6c-1 1-2.6 1-3.7 0L50.7 50.1c-1-1-2.6-1-3.6 0L31.4 64.5c-.5.5-.8 1.1-.9 1.8l-.4 6.3c0 1.5 1.2 2.8 2.8 2.8z" fill="#4ac6c6"/><circle cx="75.1" cy="40.5" r="7.7" fill="#ffb115"/><path class="st5" d="M38 83.7h8.6v8.9H38zM81.5 83.7h8.6v8.9h-8.6z"/></svg>