<svg id="drill" xmlns="http://www.w3.org/2000/svg" viewBox="0 0 128 128"><style>.st1{fill:#194063}.st2{fill:#ffb115}.st4{fill:#d3e0ea}.st5{fill:#2a5083}</style><path d="M116 128H12c-6.6 0-12-5.4-12-12V12C0 5.4 5.4 0 12 0h104c6.6 0 12 5.4 12 12v104c0 6.6-5.4 12-12 12z" fill="#6554c0"/><circle class="st1" cx="78.3" cy="73.3" r="10.2"/><path class="st2" d="M92.5 106.4c7.7 0 13.9-6.3 13.9-13.9V68.8c0-7.7-6.3-13.9-13.9-13.9-7.7 0-13.9 6.3-13.9 13.9v23.7c-.1 7.7 6.2 13.9 13.9 13.9z"/><path d="M42.3 57.8H16.6c-3.5 0-6.5-2.9-6.5-6.5 0-3.5 2.9-6.5 6.5-6.5h25.7c3.6 0 6.5 2.9 6.5 6.5s-2.9 6.5-6.5 6.5z" fill="#fff"/><path class="st4" d="M23 57.8h4.3l9.9-12.9h-4.4L23 57.8z"/><path class="st2" d="M47.2 34.9v32.3c0 2.7 2.2 4.9 4.9 4.9h54.3V46.2c0-9-7.3-16.2-16.2-16.2H52.1c-2.7 0-4.9 2.2-4.9 4.9z"/><path class="st5" d="M47.2 34.9h-8.7c-2.7 0-4.9 2.2-4.9 4.9v22.6c0 2.7 2.2 4.9 4.9 4.9h8.7V34.9z"/><path class="st1" d="M47.2 67.2V34.9h-3.9v32.4h3.9v-.1z"/><path class="st5" d="M91.4 45.5H74.8c-.8 0-1.5-.7-1.5-1.5v-1.8c0-.8.7-1.5 1.5-1.5h16.6c.8 0 1.5.7 1.5 1.5V44c0 .8-.7 1.5-1.5 1.5zm0 8H74.8c-.8 0-1.5-.7-1.5-1.5v-1.8c0-.8.7-1.5 1.5-1.5h16.6c.8 0 1.5.7 1.5 1.5V52c0 .8-.7 1.5-1.5 1.5zm0 7.8H74.8c-.8 0-1.5-.7-1.5-1.5V58c0-.8.7-1.5 1.5-1.5h16.6c.8 0 1.5.7 1.5 1.5v1.8c0 .8-.7 1.5-1.5 1.5z"/><path class="st4" d="M12.7 56.6c1 .7 2.2 1.1 3.4 1.2l9.8-12.9h-4.3l-8.9 11.7z"/><path d="M80.4 72.1h-1.9V92c-.2 7.8 6 14.4 13.6 14.4h.2l.2-22.2c0-6.6-5.5-12.1-12.1-12.1z" fill="#f2900f"/></svg>