<svg id="bull" xmlns="http://www.w3.org/2000/svg" viewBox="0 0 120 120">
  <style>
    .st1{fill:#72594b}.st2{fill:#543e36}.st3{fill:#172b4d}.st5{fill:#f4f5f7}
  </style>
  <path d="M60.1 119.9C27.2 119.9.2 92.9.2 60S27.2.1 60.1.1 120 27.1 120 60c-.5 32.9-27 59.9-59.9 59.9z" fill="#36b37e"/>
  <path class="st1" d="M63.6 15.6c3.5-3 8.5-2 10.5 2.5 1 2.5 4 4 7 3 4-1.5 8.5 2 8.5 6.5 0 3 2 5.5 5 5.5 4.5.5 7 5.5 5.5 9.5-1 2.5 0 5.5 2.5 7 4 2.5 4.5 7.5 1 11-2 2-2.5 5-1 7.5 2.5 3.5 1 9-3.5 10.5-2.5 1-4.5 3.5-4 6.5 1 4.5-3 8.5-7.5 8-3 0-5.5 1.5-6 4.5-1 4.5-6 6.5-10 4.5-2.5-1.5-5.5-.5-7.5 1.5-2.5 3.5-8 3.5-11 0-1.5-2.5-5-3-7.5-1.5-4 2-9 0-10-4.5-.5-3-3.5-4.5-6-4.5-4.5.5-8-3.5-7.5-8 .5-3-1-5.5-4-6.5-4.5-1.5-6-6.5-3.5-10.5 1.5-2.5 1.5-5.5-1-7.5-3.5-3-2.5-8.5 1-11 4.5-1.5 5.5-4.5 4.5-7-2-4.5 1-9 5.5-9.5 2.5-.5 5-3 5-5.5 0-4.5 4.5-7.5 9-6.5 2.5 1 5.5-.5 7-3 2-4 7-5 10.5-2.5 2 2 5 2 7.5 0z"/>
  <path class="st2" d="M60.1 102.9c-16 0-29.5-13-29.5-29.5V37.5H89V74c.6 15.9-13.4 28.9-28.9 28.9z"/>
  <circle class="st3" cx="48.1" cy="70" r="3.5"/>
  <circle class="st3" cx="70.6" cy="70" r="3.5"/>
  <path d="M64.1 83.5c-1.5 0-3 .5-4 1.5-1-1-2.5-1.5-4-1.5-2.5 0-5.5 2-5.5 3.5 0 2.5 5.5 4.5 9.5 4.5s9.5-2 9.5-4.5c0-2-3-3.5-5.5-3.5z" fill="#f07950"/>
  <circle class="st2" cx="89.1" cy="61" r="5.5"/>
  <circle class="st2" cx="30.6" cy="62" r="5.5"/>
  <path class="st1" d="M61.1 23.6c-2 1.5-2.5 4-1.5 6.5 2 3.5 0 7.5-4 8.5-2.5.5-4 3-4 5.5.5 4-3 7-7 6.5-2.5-.5-5 1-5.5 3.5-1.5 3.5-5.5 5-9 3-2-1.5-5-1-6.5.5-1 1.5-3 2-4.5 2V57c3-22 22-37.4 43.4-35.4.1.5-.4 1.5-1.4 2z"/>
  <path class="st1" d="M45.6 25.1c2.5 1.5 4 4.5 3 7-2 4 1 9 5.5 9 3 .5 5 2.5 5.5 5.5.5 4.5 5 7.5 9 6 2.5-1 5.5.5 7 3 2 4 7.5 5 10.5 2 2-2 5.5-2 7.5-.5 1.5 1.5 3.5 1.5 5.5 1.5l-.6-2.6c-6-24-30.9-38.9-54.9-32.4.5 0 1.5 1 2 1.5z"/>
  <circle class="st5" cx="30.1" cy="68.5" r="2"/>
  <circle class="st5" cx="89.1" cy="68.5" r="2"/>
</svg>