<svg id="bull" xmlns="http://www.w3.org/2000/svg" viewBox="0 0 120 120">
  <style>
    .st1,.st2,.st3,.st6{fill-rule:evenodd;clip-rule:evenodd;fill:#dee0e4}.st2,.st3,.st6{fill:#47362f}.st3,.st6{fill:#0052cc}.st6{fill:#091e42}
  </style>
  <g id="Page-1">
    <g id="diverse-avatars" transform="translate(-1424 -250)">
      <g id="female_9" transform="translate(1424 250)">
        <path id="Path" d="M60 120C27 120 0 93 0 60S27 0 60 0s60 27 60 60-27 60-60 60z" fill-rule="evenodd" clip-rule="evenodd" fill="#2684ff"/>
        <path class="st1" d="M107.2 96.9c-2.8-4.3-9.1-7.2-12.7-16.1-1.3-3.3-1.5-5.6-1.5-7.6v-1.1-1.4-.7c.1-7.9.1-15.9.2-23.8L27 44.1v31.6c0 1.7 0 3.4-.1 5.1-1.2 15.6 10.1 31 24 38.6 3 .5 6.1.7 9.2.7 19-.1 36.1-9.2 47.1-23.2z"/>
        <circle id="XMLID_11_" class="st2" cx="86.5" cy="65" r="6"/>
        <circle id="XMLID_10_" class="st2" cx="33.5" cy="65" r="6"/>
        <circle id="Oval" class="st3" cx="31.4" cy="70.8" r="2.5"/>
        <circle class="st3" cx="88.4" cy="70.8" r="2.5"/>
        <path d="M60.5 100.5c-15.5 0-29-12.5-29-29v-20l1.9-3.8c10.7-21.9 41.8-22.1 52.9-.5l2.2 4.3V72c.5 16-12.5 28.5-28 28.5z" fill-rule="evenodd" clip-rule="evenodd" fill="#533e36"/>
        <linearGradient id="SVGID_1_" gradientUnits="userSpaceOnUse" x1="-527.1194" y1="367.4192" x2="-526.1194" y2="367.4192" gradientTransform="matrix(30.3015 0 0 -33.4 16035.334 12314.4004)">
          <stop offset="0" stop-color="#c0c6cf"/>
          <stop offset="1" stop-color="#dee0e4"/>
        </linearGradient>
        <path d="M92.9 43.5c-1.3-9.6-10.1-17.6-17.2-17.6-5.1 0-9.7 2.6-12.9 6.2 1.7 5.3 4.2 8.2 6.1 9.9 5.7 5 11.5 3.9 15.7 9.1 2.4 2.9 3.6 6 3.8 8.2 1.2-1.4 5.7-7.4 4.5-15.8z" fill-rule="evenodd" clip-rule="evenodd" fill="url(#SVGID_1_)"/>
        <path class="st1" d="M55.6 14.9c-15.8 0-28.7 12.8-28.7 28.6 0 3.8 1.1 7.3 1.1 7.3.3 2.2.9 3.9 1.3 5.1 1.1 2.6 1.8 2.8 2.1 2.8.1 0 .1-.1.1-.1 0-1.3.4-2.8 1.4-4.8 5.7-9.6 21.5-5.1 34.1-13.6 3.4-2.3 7.8-6.3 11.4-14-1.9-2.4-6.5-7.6-14.3-10-2.8-.8-5.6-1.3-8.5-1.3z"/>
        <circle class="st6" cx="48.4" cy="62.3" r="3.5"/>
        <circle class="st6" cx="70.9" cy="62.3" r="3.5"/>
        <path id="XMLID_24_" class="st6" d="M59.5 87.6c3.9 0 8.5-3.1 8.9-6.6.2-2.3-.8-3.1-2.3-3.1H53c-1.5 0-2.7 1.2-2.3 3.1 1.1 3.9 5 6.6 8.8 6.6z"/>
      </g>
    </g>
  </g>
</svg>