<svg id="bull" xmlns="http://www.w3.org/2000/svg" viewBox="0 0 120 120">
  <style>
    .st1{fill:#ff7452}.st2{fill:#ff8f73}.st4{fill:#42526e}
  </style>
  <path d="M60 120C27 120 0 93 0 60S27 0 60 0s60 27 60 60-27 60-60 60z" fill="#de350b"/>
  <path class="st1" d="M26 74v16.5c0 8 2 16 6 22.5 8.5 4.5 18 7 28 7 13 0 25.5-4.5 35.5-11.5C95 100 94 91 94 82.5V74H26z"/>
  <ellipse class="st2" cx="60" cy="70.5" rx="34" ry="39.5"/>
  <path class="st2" d="M94 70.5v-7c0-1.5.5-3 .5-4.5.5-3 .5-6-.5-8.5V49c0-19-15.5-33.5-34-33.5C42 15 26.5 29 26 47c0 1.5 0 2.5-.5 4-1 2.5-1 5.5 0 8 .5 1.5.5 2.5.5 4v8.5C26.5 93 41.5 110 60 110s34-17.5 34-39.5z"/>
  <path d="M60 97.5c-15.5 0-29-12.5-29-29V54c0-30.5 57-30 57 0v15c1 16-12 28.5-28 28.5z" fill="#ac8457"/>
  <path class="st1" d="M88.5 54v-2.5c0-16-13-29-29-29S30.5 35 31 51v2.5c.5-22 57.5-22 57.5.5z"/>
  <circle class="st4" cx="49" cy="58.5" r="3.5"/>
  <circle class="st4" cx="71.5" cy="58.5" r="3.5"/>
  <path class="st4" d="M60 82.5c2.5 0 6-2 7-4 .5-1.5-.5-3-2-3H54.5c-1 0-2.5 1.5-2 3 1.5 2.5 4.5 4 7.5 4z"/>
</svg>