<svg id="food" xmlns="http://www.w3.org/2000/svg" viewBox="0 0 128 128"><style>.st1{fill:#ffb115}.st6{fill:#fff}</style><path d="M116.1 128h-104c-6.6 0-12-5.4-12-12V12c0-6.6 5.4-12 12-12h104c6.6 0 12 5.4 12 12v104c0 6.6-5.4 12-12 12z" fill="#403294"/><path class="st1" d="M41.6 105.6c8 1.5 16.7-.9 22.9-7l34.9-34.9c6.3-6.3 8.6-15.1 7-23.2l-64.8 65.1zM91.1 21.8c-9.3-3.8-20.5-2-28 5.6L28.2 62.3c-7.5 7.5-9.4 18.6-5.6 27.8l68.5-68.3z"/><path d="M36.4 104.1c1.9.8 3.8 1.3 5.7 1.6l64.4-64.4c-.3-2-.9-3.9-1.7-5.8l-68.4 68.6z" fill="#ed9015"/><path d="M24.3 102.9c.3.3.7.6 1 .9l79.1-79.5c-.2-.3-.5-.6-.7-.8l-.4-.4c-3.9-3.9-10.3-3.9-14.1 0L23.9 88.3c-3.9 3.9-3.9 10.3 0 14.1l.4.5z" fill="#dc3346"/><path d="M38.6 102.7l64.9-64.9c4-4 4-10.5 0-14.5l-79.4 79.4c4 4 10.5 4 14.5 0z" fill="#c11f36"/><path d="M49.7 85.4C53 81.1 53 77 53 76.7c.1-1.3.8-8.4 8.5-8.5h.4c1.3.1 5.2 0 9.3-4.1l.1-.1c.5-.5.9-1 1.4-1.6 3.3-4.3 3.3-8.3 3.3-8.7.1-1.3.8-8.4 8.5-8.5.8 0 1.5-.3 2.1-.9 1.2-1.2 1.2-3 0-4.2-.5-.5-1.2-.8-1.9-.8 0 0-4.7-1-9.8 4l-.1.1c-.5.5-.9 1-1.4 1.6-3.3 4.3-3.3 8.3-3.3 8.7-.1 1.3-.8 8.4-8.5 8.5h-.4c-1.3-.1-5.2 0-9.3 4.1l-.1.1c-.5.5-.9 1-1.4 1.6-3.3 4.3-3.3 8.3-3.3 8.7-.1 1.3-.8 8.4-8.5 8.5-.8 0-1.5.3-2.1.9-1.2 1.2-1.2 3 0 4.2.5.5 1.2.8 1.9.8 0 0 4.7 1 9.8-4l.1-.1c.5-.5.9-1 1.4-1.6z" fill="#ffa821"/><path class="st6" d="M45.4 73.1c-.6.4-1.1.9-1.6 1.4l-.1.1c-5 5-4 9.8-4 9.8 0 .3.1.5.2.8 3.6-.4 5.4-2.4 6.4-4.4.1-.2.1-.3.2-.4.6-1.5.8-3 .8-3.5 0-.3 0-2.6 1.4-5.5-1.2.2-2.3.9-3.3 1.7zM68.4 50.1c-.6.4-1.1.9-1.6 1.4l-.1.1c-1.6 1.6-2.5 3.1-3.1 4.4-1 2.2-1 4.1-.9 4.9v.4c0 4.8-2.8 6.9-5.2 7.8-3.2 1.6-4.1 4.9-4.3 6.7.4-.1.7-.1.9-.1.3 0 4.4 0 8.7-3.3.6-.4 1.1-.9 1.6-1.4l.1-.1c1.3-1.3 2.3-2.7 2.9-3.9 1.3-2.5 1.3-4.6 1.2-5.5v-.4c0-1.3.2-2.4.6-3.3 0 0 0-.1.1-.1.1-.2.1-.3.2-.4.6-1.5.8-3 .8-3.5 0-.3 0-2.6 1.4-5.5-1.1.3-2.2.9-3.3 1.8zM91.5 38c-.1-.7-.3-1.4-.9-1.9-1.2-1.2-3-1.2-4.2 0-.6.6-.9 1.4-.9 2.1 0 .4 0 .8-.1 1.1.4.1.8.4 1.2.7 1.2 1.2 1.2 3 0 4.2-.6.6-1.4.9-2.1.9-1.3 0-2.5.2-3.4.6-.1.1-.3.1-.4.2-3.4 1.6-4.3 5-4.5 6.8.4-.1.7-.1.9-.1.3 0 4.4 0 8.7-3.3.6-.4 1.1-.9 1.6-1.4l.1-.1c5.1-5.1 4-9.8 4-9.8z"/></svg>