<svg id="koala" xmlns="http://www.w3.org/2000/svg" viewBox="0 0 128 128"><style>.st1{fill:#c0e0ed}.st2{fill:#fff}.st4{fill:#2a5083}</style><path d="M116 128H12c-6.6 0-12-5.4-12-12V12C0 5.4 5.4 0 12 0h104c6.6 0 12 5.4 12 12v104c0 6.6-5.4 12-12 12z" fill="#2684ff"/><circle class="st1" cx="36.8" cy="41.9" r="19.1"/><circle class="st2" cx="36.8" cy="41.9" r="11.3"/><circle class="st1" cx="91.2" cy="41.9" r="19.1"/><circle class="st2" cx="91.2" cy="41.9" r="11.3"/><path d="M103.8 75.6l-7.2-28.5c-1.2-5.4-6-9.3-11.6-9.3H43.3c-5.6 0-10.4 3.9-11.6 9.3l-7.2 28.5c-3.3 14.8 8 28.9 23.2 28.9h33c15.2 0 26.4-14.1 23.1-28.9z" fill="#c9e6f4"/><circle class="st2" cx="45.7" cy="65.8" r="8.8"/><circle class="st2" cx="82.5" cy="65.8" r="8.8"/><circle class="st4" cx="45.7" cy="65.8" r="4.1"/><circle class="st4" cx="82.5" cy="65.8" r="4.1"/><path class="st4" d="M64.2 62.9c-4.2 0-7.7 3.4-7.7 7.7V83.4h15.3V70.6c0-4.2-3.4-7.7-7.6-7.7z"/><path class="st4" d="M87.7 78.4c-.4-.8-1.4-1.3-2.3-.9a54.7 54.7 0 0 1-20.8 4.1c-10.4 0-18.3-2.8-21.2-4.1-.8-.3-1.8 0-2.2.8-.2.4-.2.9-.1 1.4.2.4.5.8 1 1C45.2 82 53.6 85 64.7 85c7.6 0 15.1-1.5 22.1-4.4.4-.2.8-.5.9-1 .1-.2.1-.7 0-1.2z"/><path d="M95.9 99.2C93 86.7 81.1 82.7 81.1 82.7c-3.6 9.7 0 16.7 4.6 21.3 3.9-.8 7.3-2.5 10.2-4.8z" opacity=".1" fill="#2a5083"/><path d="M81.3 82.7s19.9-.3 23.2 21.8c-.1 0-23.8-1.1-23.2-21.8z" fill="#4ac6c6"/><path d="M96.7 97c.5-.6.5-1.5-.1-2L83.2 82.8c-1.2-.1-2-.1-2-.1v2.2l13.4 12.2c.7.5 1.6.5 2.1-.1z" fill="#31adaa"/></svg>