<svg id="Layer_1" xmlns="http://www.w3.org/2000/svg" viewBox="0 0 120 120">
  <style>
    .st1{fill:#ff5631}.st2{fill:#f8d4c8}.st3{fill:#2a5083}
  </style>
  <path d="M60 120C27 120 0 93 0 60S27 0 60 0s60 27 60 60-27 60-60 60z" fill="#ffab00" id="color_x5F_bg_2_"/>
  <path class="st1" d="M44 69H22.5V48.5C22.5 42 27.5 37 34 37h10v32z"/>
  <circle class="st2" cx="28.5" cy="67.5" r="7.5"/>
  <circle class="st2" cx="87.5" cy="67.5" r="7.5"/>
  <path class="st2" d="M58.5 103C42.5 103 29 90 29 73.5V60c0-6.5 5-11.5 11.5-11.5H88V73c-.5 17-13.5 30-29.5 30z"/>
  <path class="st1" d="M80 73v3.5c0 2.5-2 3.5-3.5 3.5H39c-2.5 0-3.5-2-3.5-3.5V73c0-3.5-3-7-6.5-7.5V74c0 16 13 29.5 29.5 29.5S88 90.5 88 74v-8.5c-4.5.5-8 4-8 7.5z"/>
  <circle class="st3" cx="46.5" cy="69.5" r="3.5"/>
  <circle class="st3" cx="70" cy="69.5" r="3.5"/>
  <path class="st3" d="M58.5 96.5C64 96.5 68 93 69 88c0-1-.5-2-1.5-2h-18c-1 0-1.5 1-1.5 2 .5 5 5.5 8.5 10.5 8.5z"/>
  <circle class="st2" cx="58.5" cy="76.5" r="6"/>
  <path class="st1" d="M74 63l-5.5-1.5c-1.5-.5-2.5-2-2-3.5s2-2.5 3.5-2l5.5 1.5c1.5.5 2.5 2 2 3.5s-2 2.5-3.5 2zM48.5 62L43 63.5c-1.5.5-3-.5-3.5-2s.5-3 2-3.5l5.5-1.5c1.5-.5 3 .5 3.5 2s-.5 3-2 3.5zM87.5 48.5h-54c0-12.5 10-23 23-23H95V41c-.5 4.5-2 7.5-7.5 7.5z"/>
</svg>