<svg id="bull" xmlns="http://www.w3.org/2000/svg" viewBox="0 0 120 120">
  <style>
    .st2{fill:#533e37}.st3{fill:#091e42}
  </style>
  <g id="color_x5F_bg_4_">
    <path id="XMLID_34_" d="M60 120C27 120 0 93 0 60S27 0 60 0s60 27 60 60-27 60-60 60z" fill="#ff5630"/>
  </g>
  <path d="M85.8 28.8c-.9-2.2-3.4-3.3-5.6-2.5-1.9.6-4 0-5.2-1.7-1.4-1.9-4-2.5-6-1.3-1.7 1-3.9.8-5.4-.6-1.7-1.6-4.4-1.6-6.2 0-1.5 1.4-3.7 1.6-5.4.6-2-1.2-4.7-.7-6 1.3-1.2 1.6-3.3 2.3-5.2 1.7-2.2-.8-4.7.3-5.6 2.5-.5 1.1-1.2 1.8-2.4 2.8-1.6 1.3-2.2 4.4-2.2 5.8v25.5H89V36.6c0-1.3.4-3.1-1.4-5-.8-.9-1.7-2.4-1.8-2.8z" fill="#0d1e41"/>
  <path id="XMLID_23_" class="st2" d="M60 100c-16 0-29.5-13-29.5-29V55.4C30.5 34.2 89 33 89 54v17c0 16-13 29-29 29z"/>
  <circle id="XMLID_26_" class="st3" cx="48" cy="66.5" r="3.5"/>
  <circle id="XMLID_25_" class="st3" cx="70.5" cy="66.5" r="3.5"/>
  <path id="XMLID_24_" class="st3" d="M60 90c5 0 11-4 11.5-8.5 0-2.5-1-4-3-4h-17c-2 0-3.5 1.5-3 4C50 86.5 55 90 60 90z"/>
  <path class="st3" d="M85.8 53.5c-.9-2.7-3.4-4.6-5.6-4-1.9.5-4-.7-5.2-2.8-1.4-2.5-4-3.6-6-2.2-1.7 1.1-3.9.7-5.4-1-1.8-2.1-4.5-2.1-6.2 0-1.5 1.7-3.7 2.1-5.4 1-2.1-1.4-4.7-.4-6.1 2.2-1.2 2.2-3.3 3.2-5.2 2.8-2.2-.6-4.7 1.2-5.6 4-.5 1.4-1.4 2.6-2.5 3.3-1.3.9-2.1 2.5-2.1 4.1V44.2c6-7 20-9.3 30-9.3 9.5 0 19.2 1.1 28.5 9.3V60c0-1.3-.5-2.6-1.5-3.5-.7-1-1.3-1.9-1.7-3z"/>
  <path class="st3" d="M49.8 59.5h-3.6c-.9 0-1.7-.8-1.7-1.7s.8-1.7 1.7-1.7h3.6c.9 0 1.7.8 1.7 1.7s-.8 1.7-1.7 1.7zm22.5 0h-3.6c-.9 0-1.7-.8-1.7-1.7s.8-1.7 1.7-1.7h3.6c.9 0 1.7.8 1.7 1.7s-.8 1.7-1.7 1.7z"/>
  <circle class="st2" cx="89" cy="65" r="6.5"/>
  <circle class="st2" cx="31" cy="65" r="6.5"/>
</svg>