<svg id="Layer_1" xmlns="http://www.w3.org/2000/svg" viewBox="0 0 120 120">
  <style>
    .st0{fill:#00b8d9}.st1{fill:#ac8456}.st3{fill:#42526e}
  </style>
  <path class="st0" d="M60 120C27 120 0 93 0 60S27 0 60 0s60 27 60 60-27 60-60 60z"/>
  <circle class="st1" cx="32.5" cy="60.5" r="7.5"/>
  <circle class="st1" cx="89" cy="60.5" r="7.5"/>
  <path class="st1" d="M31 41h59v28.4c0 9.4-4.6 18.3-12.3 23.8l-.8.6c-10.3 7.3-24.2 7.1-34.3-.6C35.3 87.7 31 79.1 31 70V41z"/>
  <path d="M85.6 66.2v7.4c0 2-1.6 3.6-3.6 3.6 0 0-9.4-2-21.9-2s-21 2-21 2c-2 0-3.6-1.6-3.6-3.6v-8.4c0-2.5-2-4.5-4.5-4.5v11.6c0 40.1 59 39 59-2.9v-8.7c-3 0-4.4 2.5-4.4 5.5z" fill="#253958"/>
  <path class="st3" d="M60 88c3.5 0 6-2.5 7-5.5.3-1.1-.5-2.5-2-2.5H54.5c-1 0-2.5 1-2 2.5 1.5 4 4 5.5 7.5 5.5z"/>
  <circle class="st3" cx="49.5" cy="63" r="3"/>
  <circle class="st3" cx="70.5" cy="63" r="3"/>
  <path d="M74.2 25.1h-2c-1.9 8-6 15-11.6 20.5 7.6 7.4 18 12 29.5 12V40.9c-.1-8.7-7.2-15.8-15.9-15.8z" fill="#008da6"/>
  <path d="M67.1 25.1H46.9c-8.8 0-15.8 7.1-15.8 15.8v16.7c11.5 0 21.9-4.6 29.5-12 5.7-5.5 9.8-12.6 11.6-20.5h-5.1z" fill="#01a2bf"/>
  <path class="st0" d="M59.5 56.3c4.9 0 9.7-.7 14.2-2-4.9-2.1-9.4-5-13.1-8.7-4 3.9-8.7 7-14 9.1 4 1 8.4 1.6 12.9 1.6z"/>
</svg>