<svg id="Layer_1" xmlns="http://www.w3.org/2000/svg" viewBox="0 0 120 120">
  <style>
    .st2{fill:#9c633a}.st4{fill:#344563}
  </style>
  <path d="M60 120C27 120 0 93 0 60S27 0 60 0s60 27 60 60-27 60-60 60z" fill="#ffab00"/>
  <path d="M92 65H28V31c0-2 1.5-3.5 3.5-3.5H88c2 0 3.5 1.5 3.5 3.5l.5 34z" fill="#0d1e41"/>
  <circle class="st2" cx="89" cy="65" r="6.5"/>
  <circle class="st2" cx="31" cy="65" r="6.5"/>
  <path class="st2" d="M60 102.5c-16 0-29-13-29-29V52c0-2.5 2.5-4 4.5-3.5 5 1 13.5 3 24.5 3s19.5-1.5 24.5-3C87 48 89 49.5 89 52v21c0 16.5-13 29.5-29 29.5z"/>
  <path d="M56.5 77v-5.5c0-2 1.5-4 3.5-4s3.5 1.5 3.5 4V77c.5 4.5-7 5-7 0z" fill="#b87544"/>
  <circle class="st4" cx="45.5" cy="66.5" r="3.5"/>
  <circle class="st4" cx="74.5" cy="66.5" r="3.5"/>
  <path class="st4" d="M60 96c4.5 0 8.5-3 9.5-6.5C70 88 69 86 67 86H52.5c-2 0-3 2-2.5 3.5 1.5 4 5.5 6.5 10 6.5z"/>
</svg>