<svg id="money" xmlns="http://www.w3.org/2000/svg" viewBox="0 0 128 128"><style>.st1{fill:#2a5083}.st2{fill:#153a56}.st6,.st8{opacity:.5;fill:#fff;enable-background:new}.st8{opacity:.1;fill:#153a56}</style><path d="M116 128H12c-6.6 0-12-5.4-12-12V12C0 5.4 5.4 0 12 0h104c6.6 0 12 5.4 12 12v104c0 6.6-5.4 12-12 12z" fill="#ffab00"/><path class="st1" d="M100.6 35.1c0-3.7-3-6.7-6.7-6.7H30.4c-4.6 0-8.4 3.8-8.4 8.4v39.7h78.6V35.1z"/><path class="st2" d="M89.2 28.5h-7l-1.5 1.6-1.6-1.6H30.4c-4.6 0-8.4 3.8-8.4 8.4s3.8 8.4 8.4 8.4h58.8c4.6 0 8.4-3.8 8.4-8.4s-3.8-8.4-8.4-8.4z"/><path class="st2" d="M96 28.5H78l-4.3 48.2h29V35.1c0-3.6-3-6.6-6.7-6.6z"/><path d="M80.8 30.1l-1-1.6-4.2-7c-1.2-2-3.8-2.7-5.8-1.5l-14.7 8.5-28 16.2c1 .4 2.2.7 3.3.7h59.5l-9.1-15.3z" fill="#4ac6c6"/><path class="st1" d="M27 102.1h74.2c2.8 0 5-2.2 5-5V50.4c0-2.8-2.2-5-5-5H27c-2.8 0-5 2.2-5 5v46.7c0 2.7 2.2 5 5 5z"/><path class="st2" d="M89 84h18.7c1.7 0 3-1.3 3-3V64.4c0-1.7-1.3-3-3-3H89c-4.7 0-8.5 3.8-8.5 8.5v5.6c0 4.7 3.9 8.5 8.5 8.5z"/><circle cx="92.5" cy="72.7" r="5.2" fill="#ffb115"/><circle cx="60.2" cy="72.7" r="12.7" fill="#345e8c"/><path class="st6" d="M82.4 44.9L72 27.6c-.4-.7-1.4-1-2.2-.5l-8.9 5.3c-.7.4-1 1.4-.5 2.2.4.7 1.4 1 2.2.5l7.5-4.5 8.8 14.8h3.6c0-.2-.1-.3-.1-.5zM62.3 45.4c-1.7-4-5.7-6.8-10.3-6.8s-8.6 2.8-10.3 6.8h20.6z"/><path d="M79.8 28.5l10.3-2.7c2.3-.6 4.6.8 5.2 3l4.3 16.5H89.2l-9.4-16.8z" fill="#3eb7b3"/><path class="st6" d="M93.8 45.4l-3.5-12.6c-.2-.8-1.1-1.3-1.9-1.1l-5.8 1.6 1.6 2.8 3.6-1 2.8 10.2 3.2.1z"/><path class="st8" d="M85.9 26.9l5.8 18.5h-2.5l-9.4-16.9z"/><path class="st8" d="M27.1 42h73.5v4.5H27.1z"/></svg>