<svg id="Layer_25" xmlns="http://www.w3.org/2000/svg" viewBox="0 0 128 128"><style>.st1{fill:#fff}</style><path d="M116 128H12c-6.6 0-12-5.4-12-12V12C0 5.4 5.4 0 12 0h104c6.6 0 12 5.4 12 12v104c0 6.6-5.4 12-12 12z" fill="#162b4d"/><path class="st1" d="M96.8 26H31.1c-6.9 0-12.5 5.6-12.5 12.5v11.9h90.7V38.5c0-6.9-5.6-12.5-12.5-12.5z"/><path d="M18.6 50.4l.1 38.1c0 6.9 5.6 12.5 12.5 12.5h65.7c6.9 0 12.5-5.6 12.5-12.5V50.4H18.6z" fill="#505f79"/><circle cx="33.6" cy="38.7" r="4.6" fill="#ff4e4a"/><circle cx="48" cy="38.7" r="4.6" fill="#ffb115"/><circle cx="62.4" cy="38.7" r="4.6" fill="#4ac6c6"/><path class="st1" d="M56.3 76.3l4.2.2-3.2 6.4c-.5 1-.1 2.3.9 2.8 1.1.6 2.4.2 2.9-.9l3.2-6.5 2.5 2.9c.9 1.1 2.7.4 2.7-1l.4-14.8c0-1.4-1.6-2.2-2.7-1.3l-11.8 9.4c-1.1 1-.5 2.7.9 2.8z"/></svg>