<svg id="Nature" xmlns="http://www.w3.org/2000/svg" viewBox="0 0 128 128"><style>.st5{fill:#b1d7e5}</style><path d="M116.1 128h-104c-6.6 0-12-5.4-12-12V12c0-6.6 5.4-12 12-12h104c6.6 0 12 5.4 12 12v104c0 6.6-5.4 12-12 12z" fill="#0065ff"/><path d="M59.3 53c4.4-1.8 7.5-6 7.5-11 0-6.6-5.3-11.9-11.9-11.9-2.9 0-5.5 1-7.5 2.7L59.3 53z" fill="#ffb115"/><path d="M78.2 67.1l-27.1 45.7v13.9c4.1.8 8.4 1.3 12.8 1.3 15.8 0 30.2-5.7 41.3-15.2l-27-45.7z" opacity=".2" fill="#39a9e2"/><path d="M72.3 22.2H29.2c-4.3 0-7.8 3.5-7.8 7.8s3.5 7.8 7.8 7.8h43.1c4.3 0 7.8-3.5 7.8-7.8s-3.5-7.8-7.8-7.8z" opacity=".4" fill="#fff"/><path d="M98.1 45.1c-1.5-2.6-5.3-2.6-6.9 0L76.6 69.7c.2.1.4.2.6.4l3.2 3.2c.8.8 2.1.8 2.9 0l2.8-2.8c.8-.8 2.1-.8 2.9 0l2.9 2.9c.8.8 2.1.8 2.9 0l3-3c.8-.8 2.1-.8 2.9 0l3.3 3.3c.8.8 2.1.8 2.9 0l3.7-3.7c.5-.5 1-.8 1.7-.7L98.1 45.1zm-61.9-16l-18.9 32c.4.1.8.2 1.1.5l3.2 3.2c.8.8 2.1.8 2.9 0l2.8-2.8c.8-.8 2.1-.8 2.9 0l2.9 2.9c.8.8 2.1.8 2.9 0l3-3c.8-.8 2.1-.8 2.9 0l3.3 3.3c.8.8 2.1.8 2.9 0l3.7-3.7c.8-.8 2.1-.8 2.9 0l3.3 3.3c.8.8 2.1.8 2.9 0l3.7-3.2-19.3-32.3c-1.9-3.2-6.5-3.7-8.8-.7-.1.2-.2.3-.3.5z" fill="#fff"/><path class="st5" d="M77 69l-.4.6.4-.6zM111.9 68.5l.4.8c-.7-.1-1.2.2-1.7.7l-3.7 3.7c-.8.8-2.1.8-2.9 0l-3.3-3.3c-.8-.8-2.1-.8-2.9 0l-3 3c-.8.8-2.1.8-2.9 0L89 70.5c-.8-.8-2.1-.8-2.9 0l-2.8 2.8c-.8.8-2.1.8-2.9 0l-3.2-3.2c-.2-.2-.4-.3-.6-.4L43.4 128h72.7c6.6 0 12-5.4 12-12V96.1l-16.2-27.6z"/><path d="M60.9 64.8c-.8.8-2.1.8-2.9 0l-3.3-3.3c-.8-.8-2.1-.8-2.9 0l-3.7 3.7c-.8.8-2.1.8-2.9 0l-3.3-3.3c-.3-.3-.7-.5-1.1-.6V128h63.1L64.6 61.6l-3.7 3.2z" fill="#cee6f3"/><path d="M41 61.4c-.7-.2-1.4 0-2 .5l-3 3c-.8.8-2.1.8-2.9 0L30.2 62c-.8-.8-2.1-.8-2.9 0l-2.8 2.8c-.8.8-2.1.8-2.9 0l-3.2-3.2c-.3-.3-.7-.4-1.1-.5l.5-.9L.1 90.1V116c0 6.6 5.4 12 12 12H41V61.4z" fill="#e3f5fc"/></svg>