<svg id="notes" xmlns="http://www.w3.org/2000/svg" viewBox="0 0 128 128"><style>.st3{fill:#2a5083}</style><path d="M116 128H12c-6.6 0-12-5.4-12-12V12C0 5.4 5.4 0 12 0h104c6.6 0 12 5.4 12 12v104c0 6.6-5.4 12-12 12z" fill="#4c9aff"/><path d="M91.1 18H36.6c-4.9 0-8.8 4-8.8 8.8v72.7c0 4.9 4 8.8 8.8 8.8H91c4.9 0 8.8-4 8.8-8.8V26.9c.1-4.9-3.9-8.9-8.7-8.9z" fill="#fff"/><path d="M89.1 40.6H43.6c-1.6 0-2.9-1.3-2.9-2.9 0-1.6 1.3-2.9 2.9-2.9h45.5c1.6 0 2.9 1.3 2.9 2.9 0 1.6-1.3 2.9-2.9 2.9zm0 12.9H43.6c-1.6 0-2.9-1.3-2.9-2.9 0-1.6 1.3-2.9 2.9-2.9h45.5c1.6 0 2.9 1.3 2.9 2.9 0 1.6-1.3 2.9-2.9 2.9zm-28 12.9H43.6c-1.6 0-2.9-1.3-2.9-2.9s1.3-2.9 2.9-2.9h17.5c1.6 0 2.9 1.3 2.9 2.9 0 1.6-1.3 2.9-2.9 2.9z" fill="#d3e0ea"/><path class="st3" d="M32.6 92.4h-8.9c-1.6 0-2.9-1.3-2.9-2.9s1.3-2.9 2.9-2.9h8.9c1.6 0 2.9 1.3 2.9 2.9s-1.3 2.9-2.9 2.9zm0-17.2h-8.9c-1.6 0-2.9-1.3-2.9-2.9s1.3-2.9 2.9-2.9h8.9c1.6 0 2.9 1.3 2.9 2.9s-1.3 2.9-2.9 2.9zm0-17.3h-8.9c-1.6 0-2.9-1.3-2.9-2.9 0-1.6 1.3-2.9 2.9-2.9h8.9c1.6 0 2.9 1.3 2.9 2.9 0 1.6-1.3 2.9-2.9 2.9zm0-17.3h-8.9c-1.6 0-2.9-1.3-2.9-2.9 0-1.6 1.3-2.9 2.9-2.9h8.9c1.6 0 2.9 1.3 2.9 2.9 0 1.6-1.3 2.9-2.9 2.9z"/><path d="M98 33.6c-5.2-2.7-10.5-2.9-11.8-.4l-4.3 8.2 18.8 9.9L105 43c1.3-2.4-1.8-6.7-7-9.4z" fill="#ff4e4a"/><path d="M105.3 42c.2-2.5-2.8-6-7.3-8.4l-6.7 12.7 9.4 4.9.6-1.1L105 43c.2-.3.3-.6.3-1z" fill="#d63e3e"/><path d="M79.5 45.9l2.9-5.6 18.9 9.9-2.9 5.6-18.9-9.9z" fill="#ebf2f9"/><path d="M92.1 52.5l-6.3-3.3-6.3-3.3L60.6 82l6.3 3.3 6.3 3.3 6.2 3.3 19-36.2-6.3-3.2z" fill="#ffa821"/><path d="M71.9 84.5l-.2-.7-4.8 1.5-1.5-4.8-4.8 1.5-.1.2c-.2.3-.3.7-.2 1.1l.7 10 5 2.6 5.9-11.4z" fill="#ffd49b"/><path d="M92.1 52.4l-3.2-1.6-17.2 33 1.5 4.8 6.2 3.2 2.4-4.6 16.6-31.5-6.3-3.3z" fill="#f2900f"/><path d="M69.9 98l8.7-5.1c.3-.2.6-.5.7-.8l.1-.2-1.5-4.8-4.7 1.5-1.5-4.8-6.4 11.8c.6.4 3.9 2.8 4.6 2.4z" fill="#e2ad79"/><path d="M65.3 95.6l-3 5.4c1.9.7 7.6-3 7.6-3l-4.6-2.4z" fill="#173e68"/><path class="st3" d="M61 93.3l.4 6.2c0 .7.4 1.2.9 1.5l3-5.4-4.3-2.3z"/></svg>