<svg id="Call_Centre" xmlns="http://www.w3.org/2000/svg" viewBox="0 0 128 128"><style>.st2{fill:#fff}.st5{fill:#ff4e4a}.st6{fill:#333}</style><path d="M116.1 128h-104c-6.6 0-12-5.4-12-12V12c0-6.6 5.4-12 12-12h104c6.6 0 12 5.4 12 12v104c0 6.6-5.4 12-12 12z" fill="#00b8d9"/><path d="M90.4 25.7H37.8c-5.9 0-10.6 4.8-10.6 10.6V128h73.9V36.4c0-5.9-4.8-10.7-10.7-10.7z" fill="#2a5083"/><path class="st2" d="M33 47.5V128h62.2V47.5z"/><circle cx="64.1" cy="79.4" r="23.1" fill="#ffbdae"/><path class="st2" d="M111.4 58.4c7.3 9.2 7.3 22.2 0 31.4-1 1.3-2.6 1.5-3.4.7-.8-.8-.7-2.3.1-3.3 6.1-7.6 6.1-18.5 0-26.1-.8-1-.9-2.5-.1-3.3.8-.9 2.4-.6 3.4.6zM17 58.4c-7.3 9.2-7.3 22.2 0 31.4 1 1.3 2.6 1.5 3.4.7.8-.8.7-2.3-.1-3.3-6.1-7.6-6.1-18.5 0-26.1.8-1 .9-2.5.1-3.3-.7-.9-2.4-.6-3.4.6z"/><path d="M79.2 41.4H49.1c-1 0-1.9-.8-1.9-1.9v-1.2c0-1 .8-1.9 1.9-1.9h30.2c1 0 1.9.8 1.9 1.9v1.2c-.1 1.1-.9 1.9-2 1.9z" fill="#1b4068"/><path class="st5" d="M70.6 79.8H57.7c-.3 0-.5.2-.5.5 0 2.5 1.3 4.6 3.2 5.9h.1c1.1.7 2.3 1.1 3.7 1.1 1.4 0 2.6-.4 3.7-1.1 2-1.2 3.3-3.4 3.3-5.9-.1-.2-.3-.5-.6-.5z"/><circle class="st6" cx="54.1" cy="73.9" r="2.5"/><circle class="st6" cx="74.2" cy="73.9" r="2.5"/><path d="M68.9 123.8h11.9c1.1 0 2-.9 2-2v-11c0-1.1-.9-2-2-2H68.9c-1.1 0-2 .9-2 2v11c0 1.1.9 2 2 2z" fill="#4ac6c6"/><path class="st5" d="M47.6 123.8h11.9c1.1 0 2-.9 2-2v-11c0-1.1-.9-2-2-2H47.6c-1.1 0-2 .9-2 2v11c0 1.1.9 2 2 2z"/></svg>