<svg id="Layer_1" xmlns="http://www.w3.org/2000/svg" viewBox="0 0 120 120">
  <style>
    .st1{fill:#f4c37d}.st3{fill:#42526e}
  </style>
  <path d="M60 120C27 120 0 93 0 60S27 0 60 0s60 27 60 60-27 60-60 60z" fill="#6554c0"/>
  <circle class="st1" cx="29.5" cy="60" r="6"/>
  <circle class="st1" cx="90.5" cy="60" r="6"/>
  <path d="M60 99.5C43 99.5 29.5 86 29.5 69V46H90v23c.5 17-13 30.5-30 30.5z" fill="#ffe1a4"/>
  <circle class="st3" cx="46.5" cy="58" r="3"/>
  <path d="M84.5 66.5C84.5 72 80 76 75 76H45.5C40 76 36 71.5 36 66.5V46h-6.5v23C29.5 86 43 99.5 60 99.5S90.5 86 90.5 69V46h-6v20.5z" fill="#fff"/>
  <path d="M91.4 28.9c-.8-.3-1.6-.4-2.4-.5-14.1-1.7-12.5-7.9-28.8-7.9-16.6 0-14.6 6.5-29.7 8-4.5.5-7 5-5.5 9.5 1 2 2.5 3 3.5 3.5.6.4 1 1 1 2V46h61s-.1-2.5.1-3c.3-.8.9-1.5 1.7-1.9.4-.2.7-.4 1.1-.7 2-1.7 3-4.3 2.3-6.9-.6-2-2.1-3.7-4.3-4.6z" fill="#344563"/>
  <path class="st3" d="M74.5 64c-4 0-7.5-3.5-7.5-7.5v-1c0-2 1.5-3.5 3.5-3.5H79c2 0 3.5 1.5 3.5 3.5v1c-.5 4-4 7.5-8 7.5zM63.2 85.1c-.8-.6-1.7-1-2.7-1-.8 0-1.5.1-2 .4-1 .5-3 1.5-5 2v.5c0 3.8 3.6 7.7 8.2 6.9 3.3-.6 5.6-3.5 5.8-6.9v-.5c-1.6 0-3.2-.6-4.3-1.4z"/>
  <path class="st1" d="M60 80c-2.2 0-4-1.8-4-4V46h7.9v30c0 2.2-1.8 4-3.9 4z"/>
  <path class="st1" d="M67.2 74.7H52.9c-1.9 0-3.4-1.5-3.4-3.4s1.5-3.4 3.4-3.4h14.3c1.9 0 3.4 1.5 3.4 3.4s-1.5 3.4-3.4 3.4z"/>
</svg>