<svg id="plane" xmlns="http://www.w3.org/2000/svg" viewBox="0 0 128 128"><style>.st1{fill:#2a5083}.st2{fill:#d3e0ea}.st3{opacity:.2;fill:#194063;enable-background:new}.st4{fill:#fff}</style><path d="M116 128H12c-6.6 0-12-5.4-12-12V12C0 5.4 5.4 0 12 0h104c6.6 0 12 5.4 12 12v104c0 6.6-5.4 12-12 12z" fill="#2684ff"/><path class="st1" d="M69.1 74.3L45.7 97.8l27 30.3h19.5L69.1 74.3z"/><path class="st2" d="M86 80.6l7.1 7.1c1.3 1.3 1.3 3.5 0 4.8l-16.6 16.6c-3.3 3.3-8.7 3.3-12 0-3.3-3.3-3.3-8.7 0-12l16.6-16.6c1.4-1.3 3.6-1.3 4.9.1z"/><path class="st3" d="M64.5 97.1c-3.3 3.3-3.3 8.7 0 12l25.1-24.9-3.6-3.6c-1.3-1.4-3.5-1.4-4.9-.1L64.5 97.1z"/><path class="st1" d="M0 55.2l29.3 25.7 23.5-23.4L0 35.2v20z"/><path class="st4" d="M46.6 41.2l-7.1-7.1c-1.3-1.3-3.5-1.3-4.8 0L18.1 50.7c-3.3 3.3-3.3 8.7 0 12s8.7 3.3 12 0L46.6 46c1.4-1.3 1.4-3.5 0-4.8z"/><path class="st2" d="M3.3 124.3c2.2 2.3 5.3 3.7 8.7 3.7h11.4l68.5-68.6c12.6-12.6 17.3-27.9 10.8-34.5L3.3 124.3z"/><path class="st4" d="M4.2 125.1l.4.4-.4-.4zM102.7 24.9c-6.6-6.6-22.2-1.8-34.8 10.8L0 103.8v12.3c0 3.2 1.3 6 3.3 8.2l99.4-99.4zM3.3 124.3l.8.8-.8-.8z"/><path class="st3" d="M43 37.6L18.3 62.9c3.3 3.1 8.6 3.1 11.8-.2L46.6 46c1.4-1.3 1.4-3.5 0-4.8L43 37.6zM73 63.6l-9-9c-1.7-1.7-1.7-4.5 0-6.2l2.1-2.1c1.7-1.7 4.5-1.7 6.2 0l8.9 8.9c1.7 1.7 1.7 4.5 0 6.2l-2.1 2.1c-1.6 1.8-4.4 1.8-6.1.1z"/><path d="M72.9 60.1l-.7-.7c-.6-.6-.6-1.5 0-2.1l2.8-2.8c.6-.6 1.5-.6 2.1 0l.7.7c.6.6.6 1.5 0 2.1L75 60.1c-.6.6-1.5.6-2.1 0zM68 55.2l-.7-.7c-.6-.6-.6-1.5 0-2.1l2.8-2.8c.6-.6 1.5-.6 2.1 0l.7.7c.6.6.6 1.5 0 2.1l-2.8 2.8c-.6.6-1.5.6-2.1 0z" fill="#194063"/></svg>