<svg id="Power" xmlns="http://www.w3.org/2000/svg" viewBox="0 0 128 128"><style>.st1{fill:#2a5083}</style><path d="M116 128H12c-6.6 0-12-5.4-12-12V12C0 5.4 5.4 0 12 0h104c6.6 0 12 5.4 12 12v104c0 6.6-5.4 12-12 12z" fill="#36b37e"/><path class="st1" d="M69.8 38.7H22.7c-3.4 0-6.2 2.8-6.2 6.2v34.2c0 3.4 2.8 6.2 6.2 6.2h47.2V38.7z"/><path d="M109.9 73.7H98.4c-1.7 0-3-1.3-3-3V54.6c0-1.7 1.3-3 3-3H110c1.7 0 3 1.3 3 3v16.2c-.1 1.6-1.4 2.9-3.1 2.9z" fill="#fff"/><path d="M100.3 38.7H69.5v46.7h30.8c3.4 0 6.2-2.8 6.2-6.2V45c.1-3.5-2.7-6.3-6.2-6.3z" fill="#ffbd17"/><path d="M106.3 62H69.5v23.4H100.2c3.4 0 6.2-2.8 6.2-6.2V62h-.1z" fill="#f2900f"/><path class="st1" d="M88.8 71.6h-1.3c-1 0-1.9-.9-1.9-1.9V54.5c0-1 .9-1.9 1.9-1.9h1.3c1 0 1.9.9 1.9 1.9v15.2c0 1-.8 1.9-1.9 1.9z"/><path class="st1" d="M78.7 62.7v-1.3c0-1 .9-1.9 1.9-1.9h15.2c1 0 1.9.9 1.9 1.9v1.3c0 1-.9 1.9-1.9 1.9H80.6c-1 0-1.9-.8-1.9-1.9z"/><path d="M16.4 62v17.1c0 3.4 2.8 6.2 6.2 6.2h46.9V62H16.4z" fill="#103449"/></svg>