<?xml version="1.0" encoding="utf-8"?>
<!-- Generator: Adobe Illustrator 22.1.0, SVG Export Plug-In . SVG Version: 6.00 Build 0)  -->
<svg version="1.1" id="Warstwa_1" xmlns="http://www.w3.org/2000/svg" xmlns:xlink="http://www.w3.org/1999/xlink" x="0px" y="0px"
	 viewBox="0 0 120 120" style="enable-background:new 0 0 120 120;" xml:space="preserve">
<style type="text/css">
	.st0{fill:#FFAB00;}
	.st1{fill:#6A330E;}
	.st2{fill:#FFE2D9;}
	.st3{fill:#253858;}
	.st4{fill:#6A330D;}
</style>
<path class="st0" d="M60,120L60,120C27,120,0,93,0,60l0,0C0,27,27,0,60,0l0,0c33,0,60,27,60,60l0,0C120,93,93,120,60,120z"/>
<path class="st1" d="M29,70.5L29,70.5c-5.5,0-10-4.5-10-10v-12c0-5.5,4.5-10,10-10h0c5.5,0,10,4.5,10,10v12C39,66,34.5,70.5,29,70.5
	z"/>
<path class="st1" d="M91,71L91,71c-5.5,0-10-4.5-10-10V49c0-5.5,4.5-10,10-10h0c5.5,0,10,4.5,10,10v12C101,66.5,96.5,71,91,71z"/>
<path class="st2" d="M60.4,97.5L60.4,97.5c-15.6,0-28.8-12.7-28.8-28.8V48.5L60,23l28.7,25.5v20.6C89.1,84.8,76,97.5,60.4,97.5z"/>
<circle class="st3" cx="49.1" cy="63" r="3.5"/>
<circle class="st3" cx="71.6" cy="63" r="3.5"/>
<path class="st4" d="M60,16.5c0,0-0.1,0-0.1,0c-15.6,0-29.8,12.7-29.3,28.3V52H42c7.9,0,14.8-4.6,18-11.3C63.2,47.4,70.1,52,78,52
	h11.7v-6.7C89.7,29.3,75.6,16.6,60,16.5z"/>
<path class="st3" d="M60.2,85.5c3.5,0,6-2.5,7-5c0.5-1-0.5-2.5-2-2.5H54.7c-1,0-2.5,1-2,2.5C54.2,83.5,57.2,85.5,60.2,85.5z"/>
</svg>
