<svg xmlns="http://www.w3.org/2000/svg" viewBox="0 0 128 128"><path d="M116 128H12c-6.6 0-12-5.4-12-12V12C0 5.4 5.4 0 12 0h104c6.6 0 12 5.4 12 12v104c0 6.6-5.4 12-12 12z" fill="#253858"/><path d="M112.7 34.3H66v57.2c0 2.9 2.4 5.3 5.3 5.3h41.3l-10.3-31.3 10.4-31.2z" fill="#d62121"/><path d="M33.9 26.7H74c2.9 0 5.3 2.4 5.3 5.3v55.2H33.9V26.7z" fill="#ff4e4a"/><path d="M71.3 96.8h1.8l6.2-9.6H66v4.3c0 2.9 2.4 5.3 5.3 5.3z" opacity=".3" fill="#0b2026"/><path d="M33.9 26.7h4.5v60.5h-4.5V26.7z" opacity=".2" fill="#0b2026"/><path d="M34.4 128V25c0-2.6-2.1-4.7-4.7-4.7S25 22.4 25 25v103h9.4z" fill="#c9e6f4"/><path d="M27.8 128V25c0-2.1 1.4-3.9 3.3-4.5-.4-.1-.9-.2-1.4-.2-2.6 0-4.7 2.1-4.7 4.7v103h2.8z" fill="#fff"/></svg>