<svg id="Refresh" xmlns="http://www.w3.org/2000/svg" viewBox="0 0 128 128"><style>.st1{fill:#6142ad}</style><path d="M116 128H12c-6.6 0-12-5.4-12-12V12C0 5.4 5.4 0 12 0h104c6.6 0 12 5.4 12 12v104c0 6.6-5.4 12-12 12z" fill="#403294"/><circle class="st1" cx="80.1" cy="90.9" r="15.6"/><circle class="st1" cx="47.7" cy="35.2" r="15.6"/><path d="M28.7 77.1c-2.5.6-4.9 1.3-7.3 1.9-1.7.4-2.6-.5-2.2-2.2 2.3-9 4.6-18.1 6.9-27.1.5-1.9 1.7-2.2 3.1-.8l15.4 15.7c1.4 1.4 2.7 2.8 4 4.2 1.3 1.3.9 2.6-.8 3.1-2.3.7-4.7 1.3-7.4 2 1.3 2 2.4 3.9 3.8 5.6 4.6 5.5 10.5 8.7 17.7 9.3 5.5.5 10.5-.8 15.3-3.4 4.2-2.3 9.1.7 9 5.4-.1 2.2-1.1 4-3 5.1-7.1 4.1-14.8 5.9-23 4.9-14.7-1.8-25.1-9.5-31.2-23 0-.2-.1-.4-.3-.7z" fill="#4ac6c6"/><path d="M87.7 52.2c-1.8-3.8-4.2-6.9-7.3-9.4-4.6-3.7-9.9-5.6-15.7-5.7-4.7-.1-9.1 1-13.1 3.3-1.7 1-3.5 1.3-5.3.6-2.4-.9-3.8-2.6-4.1-5.2-.2-2.5.8-4.5 3-5.8 5-2.9 10.4-4.7 16.2-5 12.2-.7 22.5 3.4 30.9 12.2 2.9 3.1 5.1 6.6 6.8 10.5.2.4.3.8.5 1.2 2.5-.7 4.9-1.3 7.3-1.9 1.8-.5 2.8.5 2.3 2.4-1.5 5.8-3 11.7-4.5 17.5-.8 3-1.5 6-2.3 9-.2.8-.4 1.8-1.4 1.9-.7 0-1.5-.4-2-.9-6.5-6.5-12.9-13.1-19.3-19.7-1.3-1.3-.9-2.6.9-3.1 2.3-.6 4.7-1.2 7.1-1.9z" fill="#fff"/></svg>