<svg width="16" height="16" xmlns="http://www.w3.org/2000/svg" viewbox="0 0 16 16"><g fill="none" fill-rule="evenodd"><path d="M0 1.777C0 .796.796 0 1.777 0h12.446C15.204 0 16 .796 16 1.777v12.446c0 .981-.796 1.777-1.777 1.777H1.777A1.778 1.778 0 0 1 0 14.223V1.777z" fill="#36B37E"/><path d="M5.114 11.412a.927.927 0 0 1-.456-.804c0-.516.42-.948.936-.948.192 0 .36.048.504.144a3.6 3.6 0 0 0 1.944.576c.708 0 1.14-.3 1.14-.684 0-.456-.516-.636-1.368-.816-1.32-.264-3.168-.6-3.168-2.496 0-1.344 1.14-2.508 3.312-2.508.876 0 1.74.192 2.484.576a.93.93 0 0 1 .516.828c0 .516-.42.936-.936.936a1.1 1.1 0 0 1-.444-.108c-.66-.312-1.248-.468-1.752-.468-.804 0-1.068.276-1.068.624 0 .42.492.564 1.38.732 1.32.276 3.144.66 3.144 2.472 0 1.608-1.188 2.676-3.336 2.676-1.176 0-2.076-.264-2.832-.732z" fill="#FFF"/><path d="M7.875 2.5c.483 0 .875.392.875.875v.75a.875.875 0 1 1-1.75 0v-.75c0-.483.392-.875.875-.875zM7.875 11c.483 0 .875.392.875.875v.75a.875.875 0 1 1-1.75 0v-.75c0-.483.392-.875.875-.875z" fill="#FFF"/></g></svg>