<svg id="science" xmlns="http://www.w3.org/2000/svg" viewBox="0 0 128 128"><style>.st1{fill:#fff}.st5{fill:#ff4e4a}</style><path d="M116.1 128h-104c-6.6 0-12-5.4-12-12V12c0-6.6 5.4-12 12-12h104c6.6 0 12 5.4 12 12v104c0 6.6-5.4 12-12 12z" fill="#5243aa"/><circle class="st1" cx="63.2" cy="68.9" r="40.7"/><path class="st1" d="M81.8 41.4H45.3V23.2c0-1.7 1.3-3 3-3h30.5c1.7 0 3 1.3 3 3v18.2z"/><circle cx="63.1" cy="68.9" r="30.8" opacity=".1" fill="#7f4cbf"/><path d="M72.2 32.9H54.9c-1.7 0-3-1.3-3-3V14.8c0-1.7 1.3-3 3-3h17.4c1.7 0 3 1.3 3 3v15.1c-.1 1.6-1.4 3-3.1 3z" fill="#4ac6c6"/><path d="M64.3 68.9s-32.5-15.6-31.7 3C33.3 86.7 60 83.8 60 83.8l4.3-14.9z" fill="#d62121"/><path class="st5" d="M62.1 66.4c17.3-14.5 31.5 4.5 31.5 4.5l.1.2C92.6 87 79.3 99.6 63.1 99.6c-15.9 0-29-12.1-30.5-27.7.6.5 12.7 8.5 29.5-5.5z"/><path opacity=".5" fill="#fff" d="M50.3 20.2h26.6v14.9H50.3z"/><circle class="st5" cx="61.8" cy="47.9" r="6"/><circle class="st5" cx="74.7" cy="53" r="3.8"/></svg>