<svg id="Settings" xmlns="http://www.w3.org/2000/svg" viewBox="0 0 128 128"><style>.st1{fill:#2a5083}.st2{fill:#153a56}.st3{fill:#fff}.st4{opacity:.2;fill:#2a5083;enable-background:new}</style><path d="M116 128H12c-6.6 0-12-5.4-12-12V12C0 5.4 5.4 0 12 0h104c6.6 0 12 5.4 12 12v104c0 6.6-5.4 12-12 12z" fill="#ff5630"/><path class="st1" d="M94.6 101.3h-2.2c-1.8 0-3.3-1.5-3.3-3.3V33.5c0-1.8 1.5-3.3 3.3-3.3h2.2c1.8 0 3.3 1.5 3.3 3.3V98c-.1 1.8-1.5 3.3-3.3 3.3zM34.3 101.3h-2.2c-1.8 0-3.3-1.5-3.3-3.3V33.5c0-1.8 1.5-3.3 3.3-3.3h2.2c1.8 0 3.3 1.5 3.3 3.3V98c-.1 1.8-1.6 3.3-3.3 3.3z"/><path class="st2" d="M28.8 68.3h8.7v7.8h-8.7z"/><path class="st3" d="M33.2 70.8c-6.8 0-12.4-5.6-12.4-12.4 0-6.8 5.6-12.4 12.4-12.4 6.8 0 12.4 5.6 12.4 12.4 0 6.8-5.6 12.4-12.4 12.4z"/><path class="st4" d="M38 60.9h-9.7c-.9 0-1.6-.7-1.6-1.6v-1c0-.9.7-1.6 1.6-1.6H38c.9 0 1.6.7 1.6 1.6v1c0 .9-.7 1.6-1.6 1.6z"/><path class="st2" d="M89.2 85.3h8.7v7.8h-8.7z"/><path class="st3" d="M93.5 87.8c-6.8 0-12.4-5.6-12.4-12.4 0-6.8 5.6-12.4 12.4-12.4 6.8 0 12.4 5.6 12.4 12.4 0 6.8-5.6 12.4-12.4 12.4z"/><path class="st4" d="M98.3 77.9h-9.7c-.9 0-1.6-.7-1.6-1.6v-1c0-.9.7-1.6 1.6-1.6h9.7c.9 0 1.6.7 1.6 1.6v1c0 .9-.7 1.6-1.6 1.6z"/><path class="st1" d="M64.4 101.3h-2.2c-1.8 0-3.3-1.5-3.3-3.3V33.5c0-1.8 1.5-3.3 3.3-3.3h2.2c1.8 0 3.3 1.5 3.3 3.3V98c0 1.8-1.5 3.3-3.3 3.3z"/><path class="st2" d="M59 40.1h8.7v7.8H59z"/><path class="st3" d="M63.3 42.5c-6.8 0-12.4-5.6-12.4-12.4 0-6.8 5.6-12.4 12.4-12.4 6.8 0 12.4 5.6 12.4 12.4 0 6.8-5.6 12.4-12.4 12.4z"/><path class="st4" d="M68.2 32.6h-9.7c-.9 0-1.6-.7-1.6-1.6v-1c0-.9.7-1.6 1.6-1.6h9.7c.9 0 1.6.7 1.6 1.6v1c-.1.9-.8 1.6-1.6 1.6z"/></svg>