<svg id="Spanner" xmlns="http://www.w3.org/2000/svg" viewBox="0 0 128 128"><style>.st2{fill:#bacbd6}</style><path d="M116 128H12c-6.6 0-12-5.4-12-12V12C0 5.4 5.4 0 12 0h104c6.6 0 12 5.4 12 12v104c0 6.6-5.4 12-12 12z" fill="#00875a"/><path d="M80 20.3c-.3-.2-.5-.3-.8-.4-.1 0-.2-.1-.2-.1l-.1.1h-.4c-1.4 0-2.5 1.1-2.5 2.5v30.4c0 .9-.4 1.7-1.1 2.3L65.7 62c-1 .8-2 0-2 0l-9.1-7c-.7-.5-1.1-1.4-1.1-2.3V22.4v-.1c0-1.4-1.1-2.5-2.5-2.5-.6 0-1.2.2-1.7.6C37.1 26.2 28.6 38.6 28.6 53c0 11.3 5.2 21.3 13.2 28 .4.3.8.6 1.2 1 2.3 2 7 7.2 7 16.1v30h29.4V97.5c.2-8.4 4.6-13.4 6.9-15.4C95.2 75.5 101 64.9 101 53c0-14.5-8.6-27-21-32.7z" fill="#f0f4f7"/><circle class="st2" cx="64.7" cy="79.5" r="7.7"/><path class="st2" d="M68.9 128V98.8c0-2.2-1.8-4.1-4.1-4.1-2.2 0-4.1 1.8-4.1 4.1V128h8.2z"/><path d="M80 20.3c-.3-.2-.5-.3-.8-.4-.1 0-.2-.1-.2-.1l-.1.1h-.4c-1.4 0-2.5 1.1-2.5 2.5v30.4c0 .9-.4 1.7-1.1 2.3L65.7 62c-.3.2-.6.3-.9.3V128h14.7V97.5c.2-8.4 4.6-13.4 6.9-15.4C95.2 75.5 101 65 101 53c0-14.5-8.6-27-21-32.7z" opacity=".2" fill="#00425b"/></svg>