<svg xmlns="http://www.w3.org/2000/svg" viewBox="0 0 128 128">
  <path d="M116 128H12c-6.6 0-12-5.4-12-12V12C0 5.4 5.4 0 12 0h104c6.6 0 12 5.4 12 12v104c0 6.6-5.4 12-12 12z" fill="#253858"/>
  <path fill="#f4f5f7" d="M64 66.8l-64 10v-26l64 10z"/>
  <path fill="#ff8b00" d="M64 62.8l64-14v-15l-64 28z"/>
  <path fill="#00875a" d="M64 63.8h64v-15l-64 14z"/>
  <path fill="#de350b" d="M64 61.8l64-28v-20l-64 47z"/>
  <path fill="#0052cc" d="M64 64.8l64 14v15l-64-28z"/>
  <path fill="#00a3bf" d="M64 63.8h64v15l-64-14z"/>
  <path fill="#5243aa" d="M64 65.8l64 28v20l-64-47z"/>
  <path fill="#dfe1e5" d="M64 64h-8l8-16z"/>
  <path fill="#c1c7d0" d="M64 64h8l-8-16z"/>
  <path fill="#b3bac5" d="M64 64h-8l8 16z"/>
  <path fill="#a5adba" d="M64 64h8l-8 16z"/>
</svg>