<svg id="Storm" xmlns="http://www.w3.org/2000/svg" viewBox="0 0 128 128"><style>.st4{opacity:.5;fill:#fff;enable-background:new}</style><path d="M116 128H12c-6.6 0-12-5.4-12-12V12C0 5.4 5.4 0 12 0h104c6.6 0 12 5.4 12 12v104c0 6.6-5.4 12-12 12z" fill="#6554c0"/><path d="M66.2 58.4L43.8 86.8c-.9 1.2-.1 2.8 1.4 2.8h10.4c1.5 0 2.3 1.8 1.3 2.9L45.1 106c-1.3 1.5.5 3.7 2.2 2.7l36.1-22.3c1.5-.9.8-3.3-.9-3.3H71c-1.6 0-2.4-1.9-1.2-3l19.7-19.3c1.1-1.1.3-3-1.2-3H67.6c-.6 0-1.1.2-1.4.6z" fill="#ffbd17"/><path d="M97.2 61.2c0-7.5-5.5-13.7-12.7-14.7.8-2.2 1.2-4.6 1.2-7.1 0-9.2-6.8-17.9-15-21.3-6 1.5-11 5.4-13.9 10.6-2.5-2.9-6.2-4.8-10.3-4.8-7.5 0-13.6 6.1-13.6 13.6 0 1.8.3 3.5 1 5-7.8 1.5-13.7 8.4-13.7 16.6 0 9.4 7.6 16.9 16.9 16.9h48.7c6.3-2 11.4-8.1 11.4-14.8z" fill="#fff"/><path d="M96.7 46.5c.8-2.2 1.2-4.6 1.2-7.1 0-12.1-9.8-21.9-21.9-21.9-2.3 0-4.5.4-6.5 1 8.9 2.8 15.4 11.1 15.4 20.9 0 2.5-.4 4.9-1.2 7.1 7.2 1 12.7 7.2 12.7 14.7 0 8.2-6.7 14.9-14.9 14.9h13.1c8.2 0 14.9-6.7 14.9-14.9-.1-7.5-5.6-13.7-12.8-14.7z" fill="#e4f2f9"/><path class="st4" d="M97.7 92.4c-1.8 0-3.4-1.5-3.4-3.4v-5.7c0-1.8 1.5-3.4 3.4-3.4 1.8 0 3.4 1.5 3.4 3.4V89c-.1 1.9-1.6 3.4-3.4 3.4zM84.8 105.7c-1.8 0-3.4-1.5-3.4-3.4v-5.7c0-1.8 1.5-3.4 3.4-3.4 1.8 0 3.4 1.5 3.4 3.4v5.7c0 1.8-1.5 3.4-3.4 3.4zM31.3 90.4c-1.8 0-3.4-1.5-3.4-3.4v-5.7c0-1.8 1.5-3.4 3.4-3.4 1.8 0 3.4 1.5 3.4 3.4V87c0 1.9-1.5 3.4-3.4 3.4z"/></svg>