<svg id="support" xmlns="http://www.w3.org/2000/svg" viewBox="0 0 128 128"><style>.st1{fill:#ebf2f9}.st3{fill:#fff}</style><path d="M116 128H12c-6.6 0-12-5.4-12-12V12C0 5.4 5.4 0 12 0h104c6.6 0 12 5.4 12 12v104c0 6.6-5.4 12-12 12z" fill="#00b8d9"/><path class="st1" d="M25.6 54.7c-3.3-3.4-5.3-8.1-5.3-13.2 0-10.5 8.5-19 19-19 5.5 0 10.4 2.3 13.8 6l1.6-1.6c-3.9-4.1-9.4-6.7-15.5-6.7-11.6.1-21.2 9.6-21.2 21.3 0 5.7 2.3 10.9 6 14.7l1.6-1.5zM100.8 54.8c3.3-3.4 5.3-8.1 5.3-13.2 0-10.5-8.5-19-19-19-5.5 0-10.4 2.3-13.8 6L71.7 27c3.9-4.1 9.4-6.7 15.5-6.7 11.7 0 21.3 9.5 21.3 21.3 0 5.7-2.3 10.9-6 14.7l-1.7-1.5zM100.8 75c3.3 3.4 5.3 8.1 5.3 13.2 0 10.5-8.5 19-19 19-5.5 0-10.4-2.3-13.8-6l-1.6 1.6c3.9 4.1 9.4 6.7 15.5 6.7 11.7 0 21.3-9.5 21.3-21.3 0-5.7-2.3-10.9-6-14.7l-1.7 1.5zM26.8 74.9c-3.3 3.4-5.3 8.1-5.3 13.2 0 10.5 8.5 19 19 19 5.5 0 10.4-2.3 13.8-6l1.6 1.6c-3.9 4.1-9.4 6.7-15.5 6.7-11.7 0-21.3-9.5-21.3-21.3 0-5.7 2.3-10.9 6-14.7l1.7 1.5z"/><path d="M30.7 31.6c-18.1 18.1-18.1 47.5 0 65.6s47.5 18.1 65.6 0 18.1-47.5 0-65.6-47.5-18.2-65.6 0zm49.5 49.5c-9.3 9.3-24.3 9.3-33.5 0s-9.3-24.3 0-33.5c9.3-9.3 24.3-9.3 33.5 0s9.3 24.3 0 33.5z" fill="#ff4e4a"/><path class="st3" d="M46.7 81.1c-1.9-1.9-3.3-4-4.5-6.2L25.8 91.4c1.5 2 3.1 4 4.9 5.8 2.3 2.3 4.8 4.3 7.4 6l16.7-16.7c-3-1.2-5.7-3-8.1-5.4zM80.2 47.6c2.4 2.4 4.1 5.1 5.3 8.1L102.2 39c-1.7-2.6-3.7-5.1-6-7.4-1.8-1.8-3.8-3.4-5.8-4.9L74 43.1c2.3 1.1 4.4 2.6 6.2 4.5zM25.2 38.1l16.6 16.6c1.2-2.6 2.8-5 4.9-7.1s4.6-3.7 7.1-4.9L37.2 26.1c-2.3 1.6-4.5 3.4-6.6 5.5s-3.8 4.2-5.4 6.5zM101.7 90.6L85.1 74c-1.2 2.6-2.8 5-4.9 7.1s-4.6 3.7-7.1 4.9l16.6 16.6c2.3-1.6 4.5-3.4 6.6-5.5s3.8-4.2 5.4-6.5z"/><path d="M63.5 31c-18.4 0-33.3 15-33.3 33.4s14.9 33.3 33.3 33.3 33.3-14.9 33.3-33.3S81.9 31 63.5 31zm16.7 50.1c-9.3 9.3-24.3 9.3-33.5 0-9.3-9.3-9.3-24.3 0-33.5 9.3-9.3 24.3-9.3 33.5 0s9.3 24.3 0 33.5z" opacity=".2" fill="#c92020"/><g><path d="M63.5 28.3c-19.9 0-36.1 16.2-36.1 36.1s16.2 36.1 36.1 36.1 36.1-16.2 36.1-36.1-16.2-36.1-36.1-36.1zm0 69.4c-18.4 0-33.3-14.9-33.3-33.3S45.1 31 63.5 31s33.3 15 33.3 33.4-14.9 33.3-33.3 33.3z" opacity=".07" fill="#fff"/></g></svg>