<svg id="yetti" xmlns="http://www.w3.org/2000/svg" viewBox="0 0 128 128"><style>.st1{fill:#ffbdae}.st2{fill:#fff}</style><path d="M116 128H12c-6.6 0-12-5.4-12-12V12C0 5.4 5.4 0 12 0h104c6.6 0 12 5.4 12 12v104c0 6.6-5.4 12-12 12z" fill="#00b8d9"/><circle class="st1" cx="26.6" cy="68.3" r="7"/><circle class="st1" cx="101.2" cy="68.3" r="7"/><path class="st2" d="M110.8 112.6c-1.6-5.1-5-9.4-9.4-12.2V58c-.1-12-5.7-22.6-14.4-29.4 0 0 .1 0 .1-.1 3.5-2.3 2.6-6.7 1.7-8.4-.6-.8-1 .2-1 .2-1.6 3-11.2 5.1-9 2.2 2.8-3.7 1.7-10.9-.8-7.7-4.2 5.6-14.1 5.9-14.1 5.9-20.5.1-37.1 16.8-37.1 37.3v42.1s-.1 0-.1.1c-6.6 4.1-10.4 11.5-10.4 19.3v8.5h95.5v-8.6c0-2.3-.3-4.6-1-6.8z"/><path class="st1" d="M77.1 38.9H50.6c-9.1 0-16.5 7.4-16.5 16.5v10c0 16.4 13.3 29.7 29.7 29.7s29.7-13.3 29.7-29.7V55.3c.1-9-7.3-16.4-16.4-16.4z"/><path class="st2" d="M51.7 82.7c-.8-3.1-3.2-6.6-3.2-6.6-.3-.4-.8-.6-1.3-.6-1 0-1.8.8-1.8 1.8 0 0-.4 4.4.4 6.9.9 2.4 6.4.9 5.9-1.5zm23.1 0c.8-3.1 3.2-6.6 3.2-6.6.3-.4.8-.6 1.3-.6 1 0 1.8.8 1.8 1.8 0 0 .4 4.4-.4 6.9-.7 2.4-6.5.9-5.9-1.5z"/><path d="M47.4 55.6v4.3c0 2.1 1.7 3.8 3.8 3.8S55 62 55 59.9v-4.3h-7.6zm25.8 0v4.3c0 2.1 1.7 3.8 3.8 3.8s3.8-1.7 3.8-3.8v-4.3h-7.6z" fill="#333"/><path d="M69.8 74h-11c-1.5 0-2.8-1.2-2.8-2.8v-2c0-1.5 1.2-2.8 2.8-2.8h11c1.5 0 2.8 1.2 2.8 2.8v2c0 1.5-1.3 2.8-2.8 2.8z" fill="#ff4e4a"/><path d="M63.9 78.2c-8.5 0-16.1 3-21.5 7.7 5.4 5.7 13.1 9.3 21.5 9.3 8.5 0 16.1-3.6 21.5-9.3-5.4-4.7-13.1-7.7-21.5-7.7zM83 58.7H44.7c-1.8 0-3.3-1.5-3.3-3.3V53c0-1.8 1.5-3.3 3.3-3.3H83c1.8 0 3.3 1.5 3.3 3.3v2.4c0 1.8-1.5 3.3-3.3 3.3z" fill="#f29b91"/><path class="st1" d="M98.8 128c0-10.5-8.6-19.1-19.1-19.1H48.5c-10.5 0-19.1 8.6-19.1 19.1h69.4z"/></svg>