<?xml version="1.0" encoding="UTF-8"?>
<svg width="158px" height="30px" viewBox="0 0 158 30" version="1.1" xmlns="http://www.w3.org/2000/svg" xmlns:xlink="http://www.w3.org/1999/xlink">
    <!-- Generator: Sketch 49.3 (51167) - http://www.bohemiancoding.com/sketch -->
    <title>jira-software</title>
    <desc>Created with Sketch.</desc>
    <defs>
        <linearGradient x1="97.6553341%" y1="35.6591143%" x2="37.202032%" y2="75.4891864%" id="linearGradient-1">
            <stop stop-color="#FFFFFF" stop-opacity="0.4" offset="7%"></stop>
            <stop stop-color="#FFFFFF" offset="100%"></stop>
        </linearGradient>
        <linearGradient x1="3.79350802%" y1="63.1971216%" x2="70.0821275%" y2="19.6607556%" id="linearGradient-2">
            <stop stop-color="#FFFFFF" stop-opacity="0.4" offset="7%"></stop>
            <stop stop-color="#FFFFFF" offset="91%"></stop>
        </linearGradient>
    </defs>
    <g id="New-Jira-brand" stroke="none" stroke-width="1" fill="none" fill-rule="evenodd">
        <g id="Artboard" transform="translate(-92.000000, -99.000000)" fill-rule="nonzero">
            <g id="Jira-Software-white" transform="translate(92.000000, 99.000000)">
                <path d="M10.8032809,24.6165676 C11.7502615,23.700664 12.2823171,22.4581048 12.2823171,21.162436 C12.2823171,19.8667672 11.7502615,18.6242081 10.8032809,17.7083044 L4.22673493,11.3645094 L1.23544998,14.2593514 C0.922458426,14.5626288 0.922458426,15.0539388 1.23544998,15.3572163 L10.8032809,24.6165676 Z" id="Shape" fill="#FFFFFF"></path>
                <path d="M20.3711119,14.2593514 L10.8032809,5 L10.7738497,5.02848234 C8.82371923,6.93881373 8.83328119,10.0145011 10.7952542,11.9134419 L17.3771513,18.2546475 L20.3711119,15.3572163 C20.6841034,15.0539388 20.6841034,14.5626288 20.3711119,14.2593514 Z" id="Shape" fill="#FFFFFF"></path>
                <path d="M10.8032809,11.9082633 C8.84130789,10.0093225 8.83174594,6.93363512 10.7818764,5.02330374 L3.95650257,11.6260291 L7.5257102,15.0801607 L10.8032809,11.9082633 Z" id="Shape" fill="url(#linearGradient-1)"></path>
                <path d="M14.0755005,14.5415855 L10.8032809,17.7083044 C11.7502615,18.6242081 12.2823171,19.8667672 12.2823171,21.162436 C12.2823171,22.4581048 11.7502615,23.700664 10.8032809,24.6165676 L17.6447081,17.9957171 L14.0755005,14.5415855 Z" id="Shape" fill="url(#linearGradient-2)"></path>
                <path d="M30.2386064,7.33037366 L32.3576562,7.33037366 L32.3576562,17.739376 C32.3576562,20.4969849 31.1108416,22.4001234 28.1891214,22.4001234 C27.3251052,22.4127763 26.4652865,22.2813926 25.6473318,22.0117277 L25.6473318,20.0179636 C26.3450577,20.2797551 27.0876348,20.4115342 27.8359464,20.4063592 C29.6259014,20.4063592 30.2439576,19.3706376 30.2439576,17.8766091 L30.2386064,7.33037366 Z" id="Shape" fill="#FFFFFF"></path>
                <path d="M36.2185008,6.53027871 C36.6009067,6.5037964 36.9763526,6.63930787 37.2474459,6.90166072 C37.5185391,7.16401357 37.6585652,7.52735461 37.6312006,7.89743126 C37.6312006,8.65248876 36.9987134,9.2645838 36.2185008,9.2645838 C35.4382882,9.2645838 34.8058009,8.65248876 34.8058009,7.89743126 C34.7784363,7.52735461 34.9184624,7.16401357 35.1895557,6.90166072 C35.4606489,6.63930787 35.8360948,6.5037964 36.2185008,6.53027871 Z M35.183056,10.9062026 L37.2084609,10.9062026 L37.2084609,22.2991405 L35.183056,22.2991405 L35.183056,10.9062026 Z" id="Shape" fill="#FFFFFF"></path>
                <path d="M40.2666351,10.9036133 L42.2438798,10.9036133 L42.2438798,12.9077346 C42.9261496,11.5638858 44.1167773,10.6058433 46.4124146,10.7430764 L46.4124146,12.6565721 C43.8224648,12.3976417 42.2438798,13.1588971 42.2438798,15.5721285 L42.2438798,22.3043191 L40.2666351,22.3043191 L40.2666351,10.9036133 Z" id="Shape" fill="#FFFFFF"></path>
                <path d="M55.8999785,20.2458224 C55.1454684,21.750208 53.7327685,22.52441 51.921409,22.52441 C48.7909945,22.52441 47.2124094,19.9506417 47.2124094,16.6000822 C47.2124094,13.3867559 48.8605593,10.6757545 52.156859,10.6757545 C53.8745736,10.6757545 55.1936286,11.4266527 55.9026541,12.9077346 L55.9026541,10.9036133 L57.928059,10.9036133 L57.928059,22.2965512 L55.9026541,22.2965512 L55.8999785,20.2458224 Z M52.4618737,20.7015399 C54.2759088,20.7015399 55.8999785,19.5855498 55.8999785,17.0557998 L55.8999785,16.1340075 C55.8999785,13.6042574 54.4177139,12.4882674 52.689297,12.4882674 C50.404362,12.4882674 49.2271121,13.9460456 49.2271121,16.589725 C49.2378143,19.3343873 50.366904,20.7015399 52.4645493,20.7015399 L52.4618737,20.7015399 Z" id="Shape" fill="#FFFFFF"></path>
                <path d="M69.9092522,22.52441 C66.9179673,22.52441 65.5293475,21.9547631 64.3280175,21.3618124 L64.3280175,19.2670654 C65.7647975,19.9972492 67.9774922,20.5202886 70.0243017,20.5202886 C72.3547213,20.5202886 73.2349832,19.6321573 73.2349832,18.3090229 C73.2349832,16.9858885 72.3868281,16.2815978 69.4437034,15.5980216 C65.9654651,14.7772122 64.405609,13.6146146 64.405609,11.1547758 C64.405609,8.82440211 66.2410486,7.0999256 69.8450386,7.0999256 C72.0818134,7.0999256 73.5185934,7.61778642 74.5781183,8.19261192 L74.5781183,10.2433407 C73.1052138,9.45789323 71.4433211,9.06475054 69.762096,9.10404695 C67.7366911,9.10404695 66.5353611,9.78762323 66.5353611,11.1547758 C66.5353611,12.3846952 67.5253212,13.0009496 70.2544005,13.6612221 C73.5266201,14.4587278 75.3647353,15.473735 75.3647353,18.1717898 C75.3486819,20.7688618 73.7486922,22.52441 69.9092522,22.52441 Z" id="Shape" fill="#FFFFFF"></path>
                <path d="M77.1386368,16.5767785 C77.1386368,13.1588971 79.2095264,10.6757545 82.7412761,10.6757545 C86.2730257,10.6757545 88.2984307,13.1588971 88.2984307,16.5767785 C88.2984307,19.9946599 86.2489456,22.5321779 82.7412761,22.5321779 C79.2336065,22.5321779 77.1386368,19.9946599 77.1386368,16.5767785 Z M79.1158815,16.5767785 C79.1158815,18.7414367 80.2235666,20.7015399 82.7412761,20.7015399 C85.2589855,20.7015399 86.321186,18.7414367 86.321186,16.5767785 C86.321186,14.4121203 85.2375809,12.5089818 82.7412761,12.5089818 C80.2449712,12.5089818 79.1265838,14.4121203 79.1265838,16.5767785 L79.1158815,16.5767785 Z" id="Shape" fill="#FFFFFF"></path>
                <path d="M93.4542501,10.9036133 L96.4910197,10.9036133 L96.4910197,12.7161261 L93.4542501,12.7161261 L93.4542501,22.2965512 L91.4770054,22.2965512 L91.4770054,12.7161261 L89.5612987,12.7161261 L89.5612987,10.9036133 L91.4689787,10.9036133 L91.4689787,9.66074733 C91.4689787,7.5426966 92.6943888,6.10563284 95.2147738,6.10563284 C95.676199,6.10314324 96.1356454,6.16417132 96.5793134,6.28688412 L96.5793134,8.09939697 C96.1604028,8.02230372 95.7348343,7.98415363 95.3084187,7.98546759 C94.061604,7.98546759 93.4355211,8.6923476 93.4355211,9.71771202 L93.4542501,10.9036133 Z" id="Shape" fill="#FFFFFF"></path>
                <path d="M103.343149,20.3830555 C103.771253,20.3706939 104.197005,20.3169138 104.614044,20.2225186 L104.614044,22.1127106 C104.170406,22.2355614 103.710939,22.2965922 103.249504,22.2939619 C100.729119,22.2939619 99.5037092,20.8594874 99.5037092,18.7388474 L99.5037092,12.7264833 L97.5880025,12.7264833 L97.5880025,10.9139705 L99.4956825,10.9139705 L99.4956825,8.48779258 L101.472927,8.48779258 L101.472927,10.9036133 L104.603342,10.9036133 L104.603342,12.7161261 L101.472927,12.7161261 L101.472927,18.6974185 C101.483629,19.6994792 102.096335,20.3830555 103.343149,20.3830555 Z" id="Shape" fill="#FFFFFF"></path>
                <polygon id="Shape" fill="#FFFFFF" points="105.181264 10.9036133 107.418039 10.9036133 110.807984 20.5643068 114.243413 10.9036133 116.175173 10.9036133 119.613278 20.5643068 123.005898 10.9036133 125.242673 10.9036133 120.910928 22.2965512 118.320978 22.2965512 116.295574 16.7839228 115.225346 13.2754158 114.155119 16.7839228 112.102959 22.2965512 109.513009 22.2965512"></polygon>
                <path d="M134.492111,20.2458224 C133.737601,21.750208 132.324901,22.52441 130.513542,22.52441 C127.383127,22.52441 125.804542,19.9506417 125.804542,16.6000822 C125.804542,13.3867559 127.452692,10.6757545 130.748992,10.6757545 C132.466706,10.6757545 133.785761,11.4266527 134.494787,12.9077346 L134.494787,10.9036133 L136.520192,10.9036133 L136.520192,22.2965512 L134.494787,22.2965512 L134.492111,20.2458224 Z M131.054006,20.7015399 C132.868041,20.7015399 134.492111,19.5855498 134.492111,17.0557998 L134.492111,16.1340075 C134.492111,13.6042574 133.009846,12.4882674 131.28143,12.4882674 C129.007197,12.5089818 127.82192,13.9564028 127.82192,16.6000822 C127.82192,19.3343873 128.959037,20.7015399 131.056682,20.7015399 L131.054006,20.7015399 Z" id="Shape" fill="#FFFFFF"></path>
                <path d="M139.578366,10.9036133 L141.55561,10.9036133 L141.55561,12.9077346 C142.23788,11.5638858 143.428508,10.6058433 145.724145,10.7430764 L145.724145,12.6565721 C143.134196,12.3976417 141.55561,13.1588971 141.55561,15.5721285 L141.55561,22.3043191 L139.578366,22.3043191 L139.578366,10.9036133 Z" id="Shape" fill="#FFFFFF"></path>
                <path d="M152.857209,22.52441 C148.453225,22.52441 146.52414,20.0645711 146.52414,16.5690106 C146.52414,13.1278255 148.501385,10.6679866 152.081295,10.6679866 C155.706689,10.6679866 157.164874,13.107111 157.164874,16.5690106 L157.164874,17.4571419 L148.573625,17.4571419 C148.857235,19.3939413 150.15221,20.6471645 152.92945,20.6471645 C154.150824,20.6460873 155.36252,20.437503 156.50936,20.0309101 L156.50936,21.843423 C155.54348,22.3483373 154.058539,22.52441 152.857209,22.52441 Z M148.549545,15.7922194 L155.112713,15.7922194 C154.994988,13.6741686 154.005028,12.4649636 151.982299,12.4649636 C149.84452,12.4546064 148.760915,13.8036338 148.549545,15.7792728 L148.549545,15.7922194 Z" id="Shape" fill="#FFFFFF"></path>
            </g>
        </g>
    </g>
</svg>