<?xml version="1.0" encoding="UTF-8"?>
<svg width="57px" height="30px" viewBox="0 0 57 30" version="1.1" xmlns="http://www.w3.org/2000/svg" xmlns:xlink="http://www.w3.org/1999/xlink">
    <!-- Generator: Sketch 49.3 (51167) - http://www.bohemiancoding.com/sketch -->
    <title>jira</title>
    <desc>Created with Sketch.</desc>
    <defs>
        <linearGradient x1="98.0308675%" y1="0.160599572%" x2="58.8877062%" y2="40.7655246%" id="linearGradient-1">
            <stop stop-color="#FFFFFF" stop-opacity="0.4" offset="18%"></stop>
            <stop stop-color="#FFFFFF" offset="100%"></stop>
        </linearGradient>
    </defs>
    <g id="New-Jira-brand" stroke="none" stroke-width="1" fill="none" fill-rule="evenodd">
        <g id="Artboard" transform="translate(-93.000000, -33.000000)" fill-rule="nonzero">
            <g id="Jira-white" transform="translate(93.000000, 33.000000)">
                <path d="M19.0934135,6 L10.1296327,6 C10.1296327,7.07286256 10.5558257,8.10178346 11.3144541,8.86041185 C12.0730825,9.61904024 13.1020034,10.0452332 14.1748659,10.0452332 L15.8256113,10.0452332 L15.8256113,11.638967 C15.8270419,13.8720756 17.6377356,15.6816093 19.8708446,15.6816088 L19.8708446,6.77743111 C19.8708446,6.34806777 19.5227768,6 19.0934135,6 Z" id="Shape" fill="#FFFFFF"></path>
                <path d="M14.5273014,10.5946179 L5.56611208,10.5946179 C5.56754153,12.8267149 7.37665683,14.6358302 9.60875387,14.6372597 L11.2594993,14.6372597 L11.2594993,16.2309935 C11.2594993,17.303856 11.6856923,18.3327769 12.4443207,19.0914053 C13.202949,19.8500337 14.2318699,20.2762267 15.3047325,20.2762267 L15.3047325,11.372049 C15.3047325,10.9426856 14.9566647,10.5946179 14.5273014,10.5946179 Z" id="Shape" fill="url(#linearGradient-1)"></path>
                <path d="M9.96118931,15.1892358 L1,15.1892358 C1.00143056,17.4223443 2.81212424,19.231878 5.04523323,19.2318776 L6.7011615,19.2318776 L6.7011615,20.8256113 C6.70115738,23.0566994 8.50753646,24.8665568 10.7386204,24.8708446 L10.7386204,15.9666669 C10.7386204,15.5373035 10.3905527,15.1892358 9.96118931,15.1892358 Z" id="Shape" fill="url(#linearGradient-1)"></path>
                <path d="M29.2466638,7.94357779 L31.3198134,7.94357779 L31.3198134,18.3637462 C31.3198134,21.1236266 30.1122038,23.0283328 27.2823545,23.0283328 C26.4455065,23.0409962 25.6127241,22.9095042 24.8204893,22.6396173 L24.8204893,20.6442108 C25.4962929,20.9061577 26.2155087,21.0380432 26.9402848,21.0329263 C28.6739562,21.0329263 29.2725782,19.9963515 29.2725782,18.5010923 L29.2466638,7.94357779 Z" id="Shape" fill="#FFFFFF"></path>
                <path d="M35.0514828,7.14541517 C35.4218643,7.11891105 35.7855046,7.25453415 36.0480736,7.51710312 C36.3106426,7.77967208 36.4462657,8.14331244 36.4197616,8.51369394 C36.4197616,9.26937343 35.8071623,9.8819727 35.0514828,9.8819727 C34.2958033,9.8819727 33.683204,9.26937343 33.683204,8.51369394 C33.6566999,8.14331244 33.792323,7.77967208 34.054892,7.51710312 C34.3174609,7.25453415 34.6811013,7.11891105 35.0514828,7.14541517 Z M34.0485967,11.5249438 L36.0103145,11.5249438 L36.0103145,22.9272668 L34.0485967,22.9272668 L34.0485967,11.5249438 Z" id="Shape" fill="#FFFFFF"></path>
                <path d="M38.972327,11.5223523 L40.887399,11.5223523 L40.887399,13.5281246 C41.5482155,12.1831688 42.701405,11.2243371 44.9248579,11.3616833 L44.9248579,13.2767552 C42.4163469,13.0176115 40.887399,13.779494 40.887399,16.1947133 L40.887399,22.9324497 L38.972327,22.9324497 L38.972327,11.5223523 Z" id="Shape" fill="#FFFFFF"></path>
                <path d="M54.1244595,20.8722572 C53.3936742,22.3778821 52.0253955,23.1527218 50.2709926,23.1527218 C47.2390112,23.1527218 45.7100634,20.5768334 45.7100634,17.2235139 C45.7100634,14.0075405 47.3063886,11.2943059 50.499039,11.2943059 C52.1627416,11.2943059 53.4403201,12.0458226 54.1270509,13.5281246 L54.1270509,11.5223523 L56.0887687,11.5223523 L56.0887687,22.9246754 L54.1244595,22.9246754 L54.1244595,20.8722572 Z M50.7944629,21.3283501 C52.5514572,21.3283501 54.1244595,20.2114408 54.1244595,17.6796068 L54.1244595,16.7674209 C54.1244595,14.2355869 52.6888033,13.1186776 51.014735,13.1186776 C48.8016478,13.1186776 47.6614155,14.5776566 47.6614155,17.2235139 C47.6614155,19.9600714 48.7550019,21.3283501 50.7866885,21.3283501 L50.7944629,21.3283501 Z" id="Shape" fill="#FFFFFF"></path>
            </g>
        </g>
    </g>
</svg>