<?xml version="1.0" encoding="UTF-8"?>
<svg width="110px" height="30px" viewBox="0 0 110 30" version="1.1" xmlns="http://www.w3.org/2000/svg" xmlns:xlink="http://www.w3.org/1999/xlink">
    <!-- Generator: Sketch 49.3 (51167) - http://www.bohemiancoding.com/sketch -->
    <title>jira-core</title>
    <desc>Created with Sketch.</desc>
    <defs>
        <linearGradient x1="17.1933086%" y1="20.0326493%" x2="88.2434944%" y2="53.9179104%" id="linearGradient-1">
            <stop stop-color="#FFFFFF" stop-opacity="0.4" offset="17%"></stop>
            <stop stop-color="#FFFFFF" offset="100%"></stop>
        </linearGradient>
    </defs>
    <g id="New-Jira-brand" stroke="none" stroke-width="1" fill="none" fill-rule="evenodd">
        <g id="Artboard" transform="translate(-93.000000, -171.000000)" fill-rule="nonzero">
            <g id="Jira-Core-white" transform="translate(93.000000, 171.000000)">
                <path d="M29.6091855,7.06420397 L31.7282354,7.06420397 L31.7282354,17.4757956 C31.7282354,20.2334045 30.4814207,22.136543 27.5597005,22.136543 C26.6956843,22.1491959 25.8358656,22.0178122 25.017911,21.7481474 L25.017911,19.7543832 C25.715672,20.0160544 26.4582252,20.1478293 27.2065255,20.1427788 C28.9964805,20.1427788 29.6145367,19.1070572 29.6145367,17.6130288 L29.6091855,7.06420397 Z" id="Shape" fill="#FFFFFF"></path>
                <path d="M35.5890799,6.25893041 C35.9714858,6.2324481 36.3469317,6.36795957 36.618025,6.63031242 C36.8891182,6.89266527 37.0291443,7.25600631 37.0017798,7.62608296 C37.0017798,8.38114046 36.3692925,8.99323551 35.5890799,8.99323551 C34.8088673,8.99323551 34.17638,8.38114046 34.17638,7.62608296 C34.1490154,7.25600631 34.2890415,6.89266527 34.5601348,6.63031242 C34.831228,6.36795957 35.206674,6.2324481 35.5890799,6.25893041 Z M34.5536351,10.6348543 L36.57904,10.6348543 L36.57904,22.0277922 L34.5536351,22.0277922 L34.5536351,10.6348543 Z" id="Shape" fill="#FFFFFF"></path>
                <path d="M39.6398897,10.6400329 L41.6171345,10.6400329 L41.6171345,12.6441542 C42.2994043,11.3003054 43.490032,10.3422629 45.7856693,10.479496 L45.7856693,12.3955811 C43.1957195,12.1366506 41.6171345,12.897906 41.6171345,15.3111374 L41.6171345,22.043328 L39.6398897,22.043328 L39.6398897,10.6400329 Z" id="Shape" fill="#FFFFFF"></path>
                <path d="M55.2732332,19.982242 C54.518723,21.4866276 53.1060232,22.2608296 51.2946637,22.2608296 C48.1642492,22.2608296 46.5856641,19.6870613 46.5856641,16.3365019 C46.5856641,13.1231755 48.233814,10.4121741 51.5301137,10.4121741 C53.2478283,10.4121741 54.5668833,11.1630723 55.2759088,12.6441542 L55.2759088,10.6400329 L57.3013137,10.6400329 L57.3013137,22.0329708 L55.2759088,22.0329708 L55.2732332,19.982242 Z M51.8351284,20.4379595 C53.6491635,20.4379595 55.2732332,19.3219694 55.2732332,16.7922194 L55.2732332,15.8807843 C55.2732332,13.3510343 53.7909686,12.2350442 52.0625517,12.2350442 C49.7776167,12.2350442 48.6003668,13.6928224 48.6003668,16.3365019 C48.611069,19.0708069 49.7401587,20.4379595 51.8351284,20.4379595 Z" id="Shape" fill="#FFFFFF"></path>
                <path d="M75.7092211,21.3726983 C74.7433411,21.9889526 73.2129162,22.2608296 71.6129266,22.2608296 C66.5293475,22.2608296 63.6557876,19.2986657 63.6557876,14.5809537 C63.6557876,10.0237785 66.5293475,6.83375591 71.5674419,6.83375591 C73.0737867,6.83375591 74.5801314,7.10822214 75.6878166,7.86947754 L75.6878166,9.85288446 C74.5801314,9.16930818 73.3573969,8.81716283 71.5674419,8.81716283 C67.9420474,8.81716283 65.7748374,11.1475365 65.7748374,14.5809537 C65.7748374,18.0143709 68.0116122,20.3007264 71.6851669,20.3007264 C73.0791487,20.3130307 74.4557084,20.0004131 75.6985188,19.3892913 L75.7092211,21.3726983 Z" id="Shape" fill="#FFFFFF"></path>
                <path d="M77.183459,16.3131981 C77.183459,12.8953167 79.2650509,10.4018169 82.8021517,10.4018169 C86.3392525,10.4018169 88.3593063,12.8849595 88.3593063,16.3028409 C88.3593063,19.7207223 86.3098213,22.2582403 82.8021517,22.2582403 C79.2944822,22.2582403 77.183459,19.7233116 77.183459,16.3131981 Z M79.1607038,16.3131981 C79.1607038,18.4778563 80.2683889,20.4379595 82.7860983,20.4379595 C85.3038077,20.4379595 86.3660082,18.4778563 86.3660082,16.3131981 C86.3660082,14.1485399 85.295781,12.2350442 82.7887739,12.2350442 C80.2817667,12.2350442 79.171406,14.1485399 79.171406,16.3131981 L79.1607038,16.3131981 Z" id="Shape" fill="#FFFFFF"></path>
                <path d="M90.708455,10.6400329 L92.6856997,10.6400329 L92.6856997,12.6441542 C93.3679695,11.3003054 94.5585972,10.3422629 96.8542345,10.479496 L96.8542345,12.3955811 C94.2642848,12.1366506 92.6856997,12.897906 92.6856997,15.3111374 L92.6856997,22.043328 L90.708455,22.043328 L90.708455,10.6400329 Z" id="Shape" fill="#FFFFFF"></path>
                <path d="M103.987299,22.2608296 C99.5833138,22.2608296 97.6542293,19.8009907 97.6542293,16.3054302 C97.6542293,12.8642451 99.631474,10.4044062 103.211384,10.4044062 C106.836779,10.4044062 108.294963,12.8435307 108.294963,16.3054302 L108.294963,17.1935615 L99.7010388,17.1935615 C99.984649,19.1303609 101.279624,20.3835841 104.056863,20.3835841 C105.278238,20.3825069 106.489934,20.1739226 107.636773,19.7673297 L107.636773,21.5798426 C106.670893,22.0795783 105.188629,22.2608296 103.987299,22.2608296 Z M99.6796343,15.528639 L106.248154,15.528639 C106.130429,13.4105883 105.140468,12.2013832 103.117739,12.2013832 C100.971934,12.1884367 99.8910041,13.5348748 99.6769587,15.5156925 L99.6796343,15.528639 Z" id="Shape" fill="#FFFFFF"></path>
                <path d="M10.9444236,17.5172245 C10.9444236,20.5946558 13.5222884,23.0894069 16.7022458,23.0894069 L16.7022458,11.986471 L10.9444236,15.8031052 L10.9444236,17.5172245 Z" id="Shape" fill="url(#linearGradient-1)"></path>
                <path d="M16.7022458,11.986471 L16.7022458,6.83116661 C16.7016766,6.5244601 16.5260853,6.24314625 16.2458273,6.09994098 C15.9655693,5.9567357 15.6264943,5.97506715 15.3644618,6.14759033 L2,14.9771172 C3.78842807,17.520496 7.36832488,18.1800099 9.99727257,16.4504312 L16.7022458,11.986471 Z" id="Shape" fill="#FFFFFF"></path>
            </g>
        </g>
    </g>
</svg>