<?xml version="1.0" encoding="UTF-8"?>
<svg width="191px" height="30px" viewBox="0 0 191 30" version="1.1" xmlns="http://www.w3.org/2000/svg" xmlns:xlink="http://www.w3.org/1999/xlink">
    <!-- Generator: Sketch 49.3 (51167) - http://www.bohemiancoding.com/sketch -->
    <title>jira-service-desk</title>
    <desc>Created with Sketch.</desc>
    <defs>
        <linearGradient x1="38.0412357%" y1="6.63683429%" x2="59.8560262%" y2="63.7778713%" id="linearGradient-1">
            <stop stop-color="#FFFFFF" stop-opacity="0.4" offset="0%"></stop>
            <stop stop-color="#FFFFFF" offset="100%"></stop>
        </linearGradient>
    </defs>
    <g id="New-Jira-brand" stroke="none" stroke-width="1" fill="none" fill-rule="evenodd">
        <g id="Artboard" transform="translate(-94.000000, -244.000000)" fill-rule="nonzero">
            <g id="Jira-Service-Desk-white" transform="translate(94.000000, 244.000000)">
                <path d="M28.3469799,7.33037366 L30.4660297,7.33037366 L30.4660297,17.739376 C30.4660297,20.4969849 29.219215,22.4001234 26.2974949,22.4001234 C25.4334786,22.4127763 24.57366,22.2813926 23.7557053,22.0117277 L23.7557053,20.0179636 C24.4534663,20.2796348 25.1960195,20.4114097 25.9443199,20.4063592 C27.7342748,20.4063592 28.352331,19.3706376 28.352331,17.8766091 L28.3469799,7.33037366 Z" id="Shape" fill="#FFFFFF"></path>
                <path d="M34.3268742,6.53027871 C34.7092801,6.5037964 35.0847261,6.63930787 35.3558193,6.90166072 C35.6269126,7.16401357 35.7669387,7.52735461 35.7395741,7.89743126 C35.7395741,8.65248876 35.1070868,9.2645838 34.3268742,9.2645838 C33.5466616,9.2645838 32.9141744,8.65248876 32.9141744,7.89743126 C32.8868098,7.52735461 33.0268359,7.16401357 33.2979291,6.90166072 C33.5690224,6.63930787 33.9444683,6.5037964 34.3268742,6.53027871 Z M33.2914294,10.9062026 L35.3168344,10.9062026 L35.3168344,22.2991405 L33.2914294,22.2991405 L33.2914294,10.9062026 Z" id="Shape" fill="#FFFFFF"></path>
                <path d="M38.3776841,10.9036133 L40.3549288,10.9036133 L40.3549288,12.9077346 C41.0371986,11.5638858 42.2278264,10.6058433 44.5234636,10.7430764 L44.5234636,12.6565721 C41.9335139,12.3976417 40.3549288,13.1588971 40.3549288,15.5721285 L40.3549288,22.3043191 L38.3776841,22.3043191 L38.3776841,10.9036133 Z" id="Shape" fill="#FFFFFF"></path>
                <path d="M54.0110275,20.2458224 C53.2565174,21.750208 51.8438175,22.52441 50.032458,22.52441 C46.9020435,22.52441 45.3234585,19.9506417 45.3234585,16.6000822 C45.3234585,13.3867559 46.9716083,10.6757545 50.267908,10.6757545 C51.9856226,10.6757545 53.3046776,11.4266527 54.0137031,12.9077346 L54.0137031,10.9036133 L56.039108,10.9036133 L56.039108,22.2965512 L54.0137031,22.2965512 L54.0110275,20.2458224 Z M50.5729227,20.7015399 C52.3869578,20.7015399 54.0110275,19.5855498 54.0110275,17.0557998 L54.0110275,16.1340075 C54.0110275,13.6042574 52.5287629,12.4882674 50.800346,12.4882674 C48.515411,12.4882674 47.3381611,13.9460456 47.3381611,16.589725 C47.3488634,19.3343873 48.4779531,20.7015399 50.5729227,20.7015399 Z" id="Shape" fill="#FFFFFF"></path>
                <path d="M68.0203013,22.52441 C65.0290163,22.52441 63.6403966,21.9547631 62.4390666,21.3618124 L62.4390666,19.2670654 C63.8758465,19.9972492 66.0885412,20.5202886 68.1353507,20.5202886 C70.4657704,20.5202886 71.3460322,19.6321573 71.3460322,18.3090229 C71.3460322,16.9858885 70.4978772,16.2815978 67.5547524,15.5980216 C64.0765141,14.7772122 62.516658,13.6146146 62.516658,11.1547758 C62.516658,8.82440211 64.3520976,7.0999256 67.9560876,7.0999256 C70.1928624,7.0999256 71.6296424,7.61778642 72.6891673,8.19261192 L72.6891673,10.2433407 C71.2162159,9.45800955 69.5543563,9.06487466 67.873145,9.10404695 C65.8477401,9.10404695 64.6464101,9.78762323 64.6464101,11.1547758 C64.6464101,12.3846952 65.6363702,13.0009496 68.3654495,13.6612221 C71.6376691,14.4587278 73.4757843,15.473735 73.4757843,18.1717898 C73.4597309,20.7688618 71.8570657,22.52441 68.0203013,22.52441 Z" id="Shape" fill="#FFFFFF"></path>
                <path d="M81.5827551,22.52441 C77.1787703,22.52441 75.2496858,20.0645711 75.2496858,16.5690106 C75.2496858,13.1278255 77.2269305,10.6679866 80.8068404,10.6679866 C84.432235,10.6679866 85.8904195,13.107111 85.8904195,16.5690106 L85.8904195,17.4571419 L77.2964953,17.4571419 C77.5801055,19.3939413 78.8750804,20.6471645 81.6523199,20.6471645 C82.8736946,20.6460873 84.0853904,20.437503 85.2322298,20.0309101 L85.2322298,21.843423 C84.2663498,22.3483373 82.7840851,22.52441 81.5827551,22.52441 Z M77.2750908,15.7922194 L83.8436101,15.7922194 C83.7258851,13.6741686 82.7359249,12.4649636 80.7131956,12.4649636 C78.5673901,12.4520171 77.4864606,13.8036338 77.2724152,15.7792728 L77.2750908,15.7922194 Z" id="Shape" fill="#FFFFFF"></path>
                <path d="M88.2930795,10.9036133 L90.2703242,10.9036133 L90.2703242,12.9077346 C90.9525941,11.5638858 92.1432218,10.6058433 94.4388591,10.7430764 L94.4388591,12.6565721 C91.8489093,12.3976417 90.2703242,13.1588971 90.2703242,15.5721285 L90.2703242,22.3043191 L88.2930795,22.3043191 L88.2930795,10.9036133 Z" id="Shape" fill="#FFFFFF"></path>
                <polygon id="Shape" fill="#FFFFFF" points="94.8615988 10.9036133 96.9806486 10.9036133 100.798684 20.634218 104.584613 10.9036133 106.703663 10.9036133 102.136468 22.2965512 99.4287933 22.2965512"></polygon>
                <path d="M109.483578,6.53027871 C109.865984,6.5037964 110.241429,6.63930787 110.512523,6.90166072 C110.783616,7.16401357 110.923642,7.52735461 110.896277,7.89743126 C110.896277,8.65248876 110.26379,9.2645838 109.483578,9.2645838 C108.703365,9.2645838 108.070878,8.65248876 108.070878,7.89743126 C108.043513,7.52735461 108.183539,7.16401357 108.454633,6.90166072 C108.725726,6.63930787 109.101172,6.5037964 109.483578,6.53027871 Z M108.448133,10.9062026 L110.473538,10.9062026 L110.473538,22.2991405 L108.448133,22.2991405 L108.448133,10.9062026 Z" id="Shape" fill="#FFFFFF"></path>
                <path d="M121.842026,22.0013705 C121.135676,22.3664624 120.052071,22.5192313 118.968466,22.5192313 C114.778527,22.5192313 112.81466,20.0593925 112.81466,16.563832 C112.81466,13.1226469 114.767824,10.662808 118.968466,10.662808 C119.934708,10.6333928 120.894745,10.8222239 121.772461,11.2143298 L121.772461,13.0268426 C120.939164,12.6578151 120.028877,12.480564 119.112947,12.5089818 C116.052097,12.5089818 114.805282,14.3784593 114.805282,16.5871357 C114.805282,18.7958121 116.076177,20.6652896 119.161107,20.6652896 C120.07132,20.6885536 120.978211,20.5498846 121.836675,20.2561796 L121.842026,22.0013705 Z" id="Shape" fill="#FFFFFF"></path>
                <path d="M129.77776,22.52441 C125.373776,22.52441 123.444691,20.0645711 123.444691,16.5690106 C123.444691,13.1278255 125.421936,10.6679866 129.001846,10.6679866 C132.62724,10.6679866 134.085425,13.107111 134.085425,16.5690106 L134.085425,17.4571419 L125.491501,17.4571419 C125.775111,19.3939413 127.070086,20.6471645 129.847325,20.6471645 C131.0687,20.6460873 132.280396,20.437503 133.427235,20.0309101 L133.427235,21.843423 C132.461355,22.3483373 130.97909,22.52441 129.77776,22.52441 Z M125.470096,15.7922194 L132.038615,15.7922194 C131.92089,13.6741686 130.93093,12.4649636 128.908201,12.4649636 C126.751693,12.4520171 125.681466,13.8036338 125.470096,15.7792728 L125.470096,15.7922194 Z" id="Shape" fill="#FFFFFF"></path>
                <path d="M146.754239,7.33037366 C151.768253,7.33037366 154.194993,10.3598594 154.194993,14.8393555 C154.194993,19.3188515 151.746849,22.2680688 146.754239,22.2680688 L143.174329,22.2680688 L143.174329,22.2913726 L141.055279,22.2913726 L141.055279,7.33037366 L146.754239,7.33037366 Z M143.174329,9.29047685 L143.174329,20.3131443 L146.775644,20.3131443 C150.307393,20.3131443 152.073268,18.5127148 152.073268,14.911856 C152.073268,11.2661159 150.401038,9.28270893 146.657919,9.28270893 L143.174329,9.29047685 Z" id="Shape" fill="#FFFFFF"></path>
                <path d="M162.291262,22.52441 C157.887277,22.52441 155.958193,20.0645711 155.958193,16.5690106 C155.958193,13.1278255 157.935437,10.6679866 161.515347,10.6679866 C165.140742,10.6679866 166.598926,13.107111 166.598926,16.5690106 L166.598926,17.4571419 L158.007678,17.4571419 C158.291288,19.3939413 159.586263,20.6471645 162.363502,20.6471645 C163.584877,20.6460873 164.796573,20.437503 165.943412,20.0309101 L165.943412,21.843423 C164.977532,22.3483373 163.492592,22.52441 162.291262,22.52441 Z M157.983598,15.7922194 L164.552117,15.7922194 C164.434392,13.6741686 163.444432,12.4649636 161.421702,12.4649636 C159.278572,12.4520171 158.194967,13.8036338 157.983598,15.7792728 L157.983598,15.7922194 Z" id="Shape" fill="#FFFFFF"></path>
                <path d="M172.699221,22.52441 C171.284442,22.5561475 169.881617,22.2670708 168.602927,21.6802968 L168.602927,19.6088536 C169.887464,20.2992747 171.324179,20.6819435 172.792866,20.7248436 C174.347371,20.7248436 175.147366,20.1085893 175.147366,19.220458 C175.147366,18.3323267 174.465096,17.8533054 172.228321,17.330266 C169.614291,16.7140116 168.509282,15.7352547 168.509282,13.8657771 C168.509282,11.8823702 170.087867,10.6757545 172.771462,10.6757545 C174.084296,10.6573885 175.383137,10.9385866 176.562741,11.4965639 L176.562741,13.523989 C175.150041,12.8404127 173.996872,12.4882674 172.747381,12.4882674 C171.265117,12.4882674 170.462446,12.9905924 170.462446,13.8787237 C170.462446,14.6762293 171.026991,15.1733757 173.194201,15.6912365 C175.808231,16.3074909 177.127286,17.244819 177.127286,19.2230473 C177.124611,21.0899355 175.853716,22.52441 172.699221,22.52441 Z" id="Shape" fill="#FFFFFF"></path>
                <polygon id="Shape" fill="#FFFFFF" points="179.460381 22.2965512 179.460381 6.1418831 181.485786 6.1418831 181.485786 16.240169 186.54261 10.9036133 189.18072 10.9036133 183.647645 16.5094566 189.41617 22.2965512 186.660335 22.2965512 181.480435 16.9651741 181.480435 22.2965512"></polygon>
                <path d="M10.4554571,12.7471978 L15.9698026,12.7679122 C16.2946321,12.7693781 16.5908134,12.9480713 16.7351767,13.2296803 C16.8795399,13.5112894 16.8473806,13.8476234 16.6520724,14.0988145 L8.51299477,24.6165676 C7.28413211,23.7284163 6.47025713,22.4041441 6.250474,20.9351749 C6.03069088,19.4662057 6.42300992,17.9729155 7.34109601,16.7839228 L10.4554571,12.7471978 Z" id="Shape" fill="url(#linearGradient-1)"></path>
                <path d="M7.33842044,16.7839228 L1.85618174,16.7502619 C1.53135224,16.748796 1.23517092,16.5701028 1.09080769,16.2884938 C0.946444455,16.0068847 0.978603789,15.6705507 1.17391192,15.4193596 L9.23272254,5 C10.4615852,5.88815132 11.2754602,7.21242357 11.4952433,8.68139275 C11.7150264,10.1503619 11.3227074,11.6436522 10.4046213,12.8326448 L7.33842044,16.7839228 Z" id="Shape" fill="#FFFFFF"></path>
            </g>
        </g>
    </g>
</svg>