<?xml version="1.0" encoding="utf-8"?>
<!-- Generator: Adobe Illustrator 16.0.4, SVG Export Plug-In . SVG Version: 6.00 Build 0)  -->
<!DOCTYPE svg PUBLIC "-//W3C//DTD SVG 1.1//EN" "http://www.w3.org/Graphics/SVG/1.1/DTD/svg11.dtd">
<svg version="1.1" id="Layer_1" xmlns:sketch="http://www.bohemiancoding.com/sketch/ns"
	 xmlns="http://www.w3.org/2000/svg" xmlns:xlink="http://www.w3.org/1999/xlink" x="0px" y="0px" width="400px" height="200px"
	 viewBox="0 0 400 200" enable-background="new 0 0 400 200" xml:space="preserve">
<title>Cloud - header illustration@2x</title>
<desc>Created with Sketch.</desc>
<g id="new-look" sketch:type="MSPage">
	<g id="Cloud---header-illustration" sketch:type="MSArtboardGroup">
		<g id="Imported-Layers-Copy" sketch:type="MSLayerGroup">
			<path id="Fill-1" sketch:type="MSShapeGroup" fill="#3572B0" fill-opacity="0.1" d="M350.251,115.059
				c-19.602,0-35.493,15.892-35.493,35.492c0,19.602,15.893,35.493,35.493,35.493s35.493-15.892,35.493-35.493
				C385.744,130.95,369.853,115.059,350.251,115.059"/>
			<path id="Fill-2" sketch:type="MSShapeGroup" fill="#3572B0" fill-opacity="0.1" d="M20.674,55.228h66.93v75.042h-66.93V55.228z"
				/>
			<path id="Fill-3" sketch:type="MSShapeGroup" fill="#3572B0" fill-opacity="0.1" d="M268.814,36.47h66.93v75.042h-66.93V36.47z"
				/>
			<path id="Fill-4" sketch:type="MSShapeGroup" fill="#FFFFFF" d="M276.076,21.005h67.524v83.652h-67.524V21.005z"/>
			<path id="Fill-5" sketch:type="MSShapeGroup" fill="#1F5081" d="M343.602,105.907h-67.524c-0.69,0-1.25-0.56-1.25-1.25V21.005
				c0-0.691,0.56-1.25,1.25-1.25h67.524c0.691,0,1.25,0.559,1.25,1.25v83.652C344.852,105.348,344.293,105.907,343.602,105.907
				L343.602,105.907z M277.326,103.407h65.024V22.255h-65.024V103.407z"/>
			<path id="Fill-6" sketch:type="MSShapeGroup" fill="#F6F6F6" d="M285.146,50.233h49.385v36.283h-49.385V50.233z"/>
			<path id="Fill-7" sketch:type="MSShapeGroup" fill="#1F5081" d="M334.531,87.766h-49.385c-0.69,0-1.25-0.56-1.25-1.25V50.232
				c0-0.69,0.56-1.25,1.25-1.25h49.385c0.689,0,1.25,0.56,1.25,1.25v36.284C335.781,87.206,335.222,87.766,334.531,87.766
				L334.531,87.766z M286.396,85.266h46.885V51.483h-46.885V85.266z"/>
			<path id="Fill-8" sketch:type="MSShapeGroup" fill="#59AFE1" d="M285.146,50.233h49.385v7.055h-49.385V50.233z"/>
			<path id="Fill-9" sketch:type="MSShapeGroup" fill="#1F5081" d="M283.896,48.982h51.885v9.555h-51.885V48.982z M286.396,56.038
				h46.885v-4.555h-46.885V56.038z"/>
			<path id="Fill-10" sketch:type="MSShapeGroup" fill="#1F5081" d="M285.146,56.038h49.385v2.5h-49.385V56.038z"/>
			<path id="Fill-11" sketch:type="MSShapeGroup" fill="#1F5081" d="M285.146,63.765h49.385v2.5h-49.385V63.765z"/>
			<path id="Fill-12" sketch:type="MSShapeGroup" fill="#1F5081" d="M285.146,71.491h49.385v2.5h-49.385V71.491z"/>
			<path id="Fill-13" sketch:type="MSShapeGroup" fill="#1F5081" d="M285.146,79.218h49.385v2.5h-49.385V79.218z"/>
			<path id="Fill-14" sketch:type="MSShapeGroup" fill="#1F5081" d="M296.941,49.225h2.5v37.291h-2.5V49.225z"/>
			<path id="Fill-15" sketch:type="MSShapeGroup" fill="#1F5081" d="M310.918,49.225h2.5v37.291h-2.5V49.225z"/>
			<path id="Fill-16" sketch:type="MSShapeGroup" fill="#1F5081" d="M284.139,32.857H330.5v2.5h-46.361V32.857z"/>
			<path id="Fill-17" sketch:type="MSShapeGroup" fill="#1F5081" d="M284.139,38.904h36.282v2.5h-36.282V38.904z"/>
			<path id="Fill-18" sketch:type="MSShapeGroup" fill="#FFFFFF" d="M92.32,121.704H28.223V42.3H83.71l8.61,8.61V121.704"/>
			<path id="Fill-19" sketch:type="MSShapeGroup" fill="#1F5081" d="M93.57,122.955H26.973V41.05h57.254l9.343,9.343V122.955
				L93.57,122.955z M29.473,120.455H91.07V51.428l-7.878-7.878H29.473V120.455L29.473,120.455z"/>
			<path id="Fill-20" sketch:type="MSShapeGroup" fill="#F7C342" d="M49.269,58.086h22.96v14.35h-22.96V58.086z"/>
			<path id="Fill-21" sketch:type="MSShapeGroup" fill="#1F5081" d="M72.229,73.685H49.27c-0.691,0-1.25-0.559-1.25-1.249V58.085
				c0-0.69,0.559-1.25,1.25-1.25h22.959c0.691,0,1.251,0.56,1.251,1.25v14.351C73.48,73.126,72.92,73.685,72.229,73.685
				L72.229,73.685z M50.52,71.185h20.46v-11.85H50.52V71.185z"/>
			<path id="Fill-22" sketch:type="MSShapeGroup" fill="#FFFFFF" d="M60.749,72.436v25.27"/>
			<path id="Fill-23" sketch:type="MSShapeGroup" fill="#1F5081" d="M59.5,72.436H62v25.271h-2.5V72.436z"/>
			<path id="Fill-24" sketch:type="MSShapeGroup" fill="#1F5081" d="M44.301,91.569h-2.5v-9.567c0-0.69,0.559-1.25,1.25-1.25h35.397
				c0.69,0,1.25,0.56,1.25,1.25v9.186h-2.5v-7.936H44.301V91.569"/>
			<path id="Fill-25" sketch:type="MSShapeGroup" fill="#59AFE1" d="M38.268,90.612h8.61v8.61h-8.61V90.612z"/>
			<path id="Fill-26" sketch:type="MSShapeGroup" fill="#1F5081" d="M37.018,89.362h11.11v11.111h-11.11V89.362z M39.518,97.973
				h6.11v-6.11h-6.11V97.973z"/>
			<path id="Fill-27" sketch:type="MSShapeGroup" fill="#67AB49" d="M73.664,90.612h8.61v8.61h-8.61V90.612z"/>
			<path id="Fill-28" sketch:type="MSShapeGroup" fill="#1F5081" d="M82.274,100.473h-8.609c-0.691,0-1.25-0.56-1.25-1.25v-8.611
				c0-0.69,0.559-1.25,1.25-1.25h8.609c0.691,0,1.25,0.56,1.25,1.25v8.611C83.524,99.913,82.965,100.473,82.274,100.473
				L82.274,100.473z M74.915,97.973h6.11v-6.11h-6.11V97.973z"/>
			<path id="Fill-29" sketch:type="MSShapeGroup" fill="#F89232" d="M56.444,97.309h8.61v8.61h-8.61V97.309z"/>
			<path id="Fill-30" sketch:type="MSShapeGroup" fill="#1F5081" d="M65.054,107.169h-8.61c-0.69,0-1.25-0.56-1.25-1.25v-8.61
				c0-0.69,0.56-1.25,1.25-1.25h8.61c0.691,0,1.25,0.56,1.25,1.25v8.61C66.304,106.609,65.745,107.169,65.054,107.169
				L65.054,107.169z M57.694,104.669h6.11v-6.11h-6.11V104.669z"/>
			<path id="Fill-31" sketch:type="MSShapeGroup" fill="#3572B0" d="M92.32,50.91h-8.61V42.3L92.32,50.91"/>
			<path id="Fill-32" sketch:type="MSShapeGroup" fill="#1F5081" d="M92.32,52.161h-8.61c-0.691,0-1.251-0.56-1.251-1.25V42.3
				c0-0.505,0.305-0.961,0.772-1.154c0.469-0.193,1.005-0.086,1.362,0.271l8.611,8.61c0.357,0.357,0.464,0.895,0.271,1.362
				C93.281,51.856,92.825,52.161,92.32,52.161L92.32,52.161z M84.96,49.661h4.342l-4.342-4.343V49.661L84.96,49.661z"/>
			<path id="Fill-33" sketch:type="MSShapeGroup" fill="#F6F6F6" d="M239.533,174.633H118.636c-1.935,0-3.504-1.568-3.504-3.503
				V81.369h127.905v89.761C243.037,173.064,241.468,174.633,239.533,174.633"/>
			<path id="Fill-34" sketch:type="MSShapeGroup" fill="#1F5081" d="M239.533,175.883H118.636c-2.621,0-4.754-2.132-4.754-4.753
				V80.119h130.405v91.011C244.287,173.751,242.154,175.883,239.533,175.883 M116.382,82.619v88.511
				c0,1.242,1.011,2.253,2.254,2.253h120.897c1.242,0,2.254-1.011,2.254-2.253V82.619H116.382"/>
			<path id="Fill-35" sketch:type="MSShapeGroup" fill="#3572B0" d="M115.132,81.369h128.05v11.547h-128.05V81.369z"/>
			<path id="Fill-36" sketch:type="MSShapeGroup" fill="#1F5081" d="M114.132,80.369h130.05v13.547h-130.05V80.369z M116.132,91.917
				h126.05V82.37h-126.05V91.917z"/>
			<path id="Fill-37" sketch:type="MSShapeGroup" fill="#336FAB" d="M116.132,82.369h126.05v2.822h-126.05V82.369z"/>
			<path id="Fill-38" sketch:type="MSShapeGroup" fill="#1F5081" d="M243.182,81.369h-128.05v3.822h1v-2.822h126.05v2.822h1V81.369"
				/>
			<path id="Fill-39" sketch:type="MSShapeGroup" fill="#FFFFFF" d="M238.658,70.711H119.512c-2.419,0-4.38,1.96-4.38,4.379v5.029
				h127.905V75.09C243.037,72.671,241.076,70.711,238.658,70.711"/>
			<path id="Fill-40" sketch:type="MSShapeGroup" fill="#4D739A" d="M115.132,80.119h127.905v1.25H115.132V80.119z"/>
			<path id="Fill-41" sketch:type="MSShapeGroup" fill="#1F5081" d="M243.037,82.619H115.132c-0.69,0-1.25-0.559-1.25-1.25V75.09
				c0-3.104,2.526-5.63,5.63-5.63h119.146c3.104,0,5.629,2.526,5.629,5.63v6.279C244.287,82.06,243.729,82.619,243.037,82.619
				L243.037,82.619z M116.382,80.119h125.405V75.09c0-1.726-1.404-3.13-3.129-3.13H119.512c-1.726,0-3.13,1.404-3.13,3.13V80.119
				L116.382,80.119z"/>
			<path id="Fill-42" sketch:type="MSShapeGroup" fill="#FFFFFF" d="M127.576,174.906v-73.12c0-1.172,0.954-2.126,2.125-2.126
				h61.757c1.173,0,2.126,0.954,2.126,2.126v73.12H127.576"/>
			<path id="Fill-43" sketch:type="MSShapeGroup" fill="#1F5081" d="M191.458,100.91c0.484,0,0.876,0.392,0.876,0.876v71.87h-63.508
				v-71.87c0-0.484,0.392-0.876,0.875-0.876H191.458 M191.458,98.41h-61.757c-1.861,0-3.375,1.515-3.375,3.376v74.37h68.508v-74.37
				C194.834,99.925,193.319,98.41,191.458,98.41"/>
			<path id="Fill-44" sketch:type="MSShapeGroup" fill="#1F5081" d="M202.984,136.816h29.334v2.5h-29.334V136.816L202.984,136.816z"
				/>
			<path id="Fill-45" sketch:type="MSShapeGroup" fill="#1F5081" d="M202.984,143.335h23.9v2.5h-23.9V143.335z"/>
			<path id="Fill-46" sketch:type="MSShapeGroup" fill="#1F5081" d="M202.984,149.854h29.334v2.5h-29.334V149.854L202.984,149.854z"
				/>
			<path id="Fill-47" sketch:type="MSShapeGroup" fill="#1F5081" d="M128.826,157.617h63.508v2.5h-63.508V157.617z"/>
			<path id="Fill-48" sketch:type="MSShapeGroup" fill="#F7C342" d="M204.072,115.253h6.518v14.123h-6.518V115.253z"/>
			<path id="Fill-49" sketch:type="MSShapeGroup" fill="#1F5081" d="M210.59,130.376h-6.518c-0.553,0-1-0.446-1-1v-14.124
				c0-0.552,0.447-1,1-1h6.518c0.553,0,1,0.448,1,1v14.124C211.59,129.93,211.143,130.376,210.59,130.376L210.59,130.376z
				 M205.072,128.376h4.518v-12.124h-4.518V128.376z"/>
			<path id="Fill-50" sketch:type="MSShapeGroup" fill="#67AB49" d="M214.393,110.907h6.519v18.469h-6.519V110.907z"/>
			<path id="Fill-51" sketch:type="MSShapeGroup" fill="#1F5081" d="M220.911,130.376h-6.519c-0.554,0-1-0.446-1-1v-18.469
				c0-0.552,0.446-1,1-1h6.519c0.552,0,1,0.448,1,1v18.469C221.911,129.93,221.463,130.376,220.911,130.376L220.911,130.376z
				 M215.393,128.376h4.52v-16.469h-4.52V128.376z"/>
			<path id="Fill-52" sketch:type="MSShapeGroup" fill="#59AFE1" d="M224.713,116.339h6.518v13.037h-6.518V116.339z"/>
			<path id="Fill-53" sketch:type="MSShapeGroup" fill="#1F5081" d="M223.713,115.339h8.52v15.037h-8.52V115.339z M225.713,128.376
				h4.52v-11.037h-4.52V128.376z"/>
			<path id="Fill-54" sketch:type="MSShapeGroup" fill="#1F5081" d="M59.423,137.624v10.142c0,0.328,0.133,0.65,0.366,0.883
				c0.233,0.233,0.555,0.367,0.884,0.367h46.648v-2.5H61.923v-8.892H59.423"/>
			<path id="Fill-55" sketch:type="MSShapeGroup" fill="#1F5081" d="M269.574,42.065h-58.817c-0.329,0-0.651,0.133-0.884,0.366
				c-0.232,0.232-0.366,0.554-0.366,0.884v18.253h2.5V44.564h57.567V42.065"/>
			<path id="Fill-56" sketch:type="MSShapeGroup" fill="#1F5081" d="M250.871,150.57h41.577v2.5h-41.577V150.57z"/>
			<path id="Fill-57" sketch:type="MSShapeGroup" fill="#FFFFFF" d="M301.01,129.215h58.934v40.86H301.01V129.215z"/>
			<path id="Fill-58" sketch:type="MSShapeGroup" fill="#1F5081" d="M359.942,171.325H301.01c-0.689,0-1.25-0.56-1.25-1.25v-40.86
				c0-0.691,0.561-1.25,1.25-1.25h58.934c0.689,0,1.25,0.559,1.25,1.25v40.86C361.192,170.766,360.633,171.325,359.942,171.325
				L359.942,171.325z M302.26,168.825h56.434v-38.36H302.26V168.825z"/>
			<path id="Fill-59" sketch:type="MSShapeGroup" fill="#1F5081" d="M308.473,138.127h31.231v2.5h-31.231V138.127z"/>
			<path id="Fill-60" sketch:type="MSShapeGroup" fill="#1F5081" d="M308.473,144.973h44.01v2.5h-44.01V144.973z"/>
			<path id="Fill-61" sketch:type="MSShapeGroup" fill="#1F5081" d="M308.473,151.816h31.231v2.5h-31.231V151.816z"/>
			<path id="Fill-62" sketch:type="MSShapeGroup" fill="#1F5081" d="M308.473,158.663h36.91v2.5h-36.91V158.663z"/>
			<path id="Fill-63" sketch:type="MSShapeGroup" fill="#1F5081" d="M185.185,149.088h-50.628v-35.697h2.5v33.197h48.128V149.088"/>
			<path id="Fill-64" sketch:type="MSShapeGroup" fill="#1F5081" d="M183.559,136.785l-8.944-5.061l-8.661,1.205l-6.684-10.293
				l-10.338,2.881l-7.943-11.414l2.051-1.429l6.93,9.956l10.398-2.896l6.816,10.498l7.925-1.104l9.681,5.479L183.559,136.785"/>
			<path id="Fill-65" sketch:type="MSShapeGroup" fill="#FFFFFF" d="M147.068,123.786c0,1.196,0.97,2.165,2.166,2.165
				c1.196,0,2.166-0.969,2.166-2.165c0-1.197-0.97-2.166-2.166-2.166C148.038,121.62,147.068,122.589,147.068,123.786"/>
			<path id="Fill-66" sketch:type="MSShapeGroup" fill="#1F5081" d="M149.234,126.859c-1.695,0-3.075-1.379-3.075-3.073
				c0-1.696,1.38-3.076,3.075-3.076c1.696,0,3.075,1.38,3.075,3.076C152.309,125.48,150.93,126.859,149.234,126.859L149.234,126.859
				z M149.234,122.529c-0.693,0-1.256,0.562-1.256,1.257c0,0.692,0.563,1.256,1.256,1.256s1.257-0.563,1.257-1.256
				C150.491,123.093,149.927,122.529,149.234,122.529L149.234,122.529z"/>
			<path id="Fill-67" sketch:type="MSShapeGroup" fill="#FFFFFF" d="M157.175,120.971c0,1.195,0.97,2.165,2.166,2.165
				c1.196,0,2.165-0.97,2.165-2.165c0-1.197-0.969-2.166-2.165-2.166C158.145,118.805,157.175,119.773,157.175,120.971"/>
			<path id="Fill-68" sketch:type="MSShapeGroup" fill="#1F5081" d="M159.341,124.045c-1.696,0-3.075-1.379-3.075-3.074
				c0-1.697,1.379-3.076,3.075-3.076c1.695,0,3.074,1.379,3.074,3.076C162.415,122.666,161.036,124.045,159.341,124.045
				L159.341,124.045z M159.341,119.713c-0.693,0-1.257,0.564-1.257,1.258c0,0.692,0.564,1.256,1.257,1.256
				c0.693,0,1.256-0.562,1.256-1.256S160.034,119.713,159.341,119.713L159.341,119.713z"/>
			<path id="Fill-69" sketch:type="MSShapeGroup" fill="#F7C342" d="M184.968,143.133h-44.614v-20.214l8.107,9.154l8.828-1.935
				l6.586,8.661l11.289-0.575L184.968,143.133"/>
			<path id="Fill-70" sketch:type="MSShapeGroup" fill="#FFFFFF" d="M181.359,135.553c0,1.196,0.97,2.165,2.166,2.165
				c1.196,0,2.165-0.969,2.165-2.165c0-1.197-0.969-2.166-2.165-2.166C182.329,133.387,181.359,134.355,181.359,135.553"/>
			<path id="Fill-71" sketch:type="MSShapeGroup" fill="#1F5081" d="M183.524,138.628c-1.695,0-3.074-1.38-3.074-3.075
				s1.379-3.076,3.074-3.076c1.696,0,3.076,1.381,3.076,3.076S185.22,138.628,183.524,138.628L183.524,138.628z M183.524,134.296
				c-0.693,0-1.256,0.563-1.256,1.257c0,0.694,0.563,1.258,1.256,1.258s1.257-0.563,1.257-1.258
				C184.781,134.859,184.217,134.296,183.524,134.296L183.524,134.296z"/>
			<path id="Fill-72" sketch:type="MSShapeGroup" fill="#FFFFFF" d="M173.562,130.645c0,1.195,0.97,2.164,2.166,2.164
				s2.166-0.969,2.166-2.164s-0.97-2.166-2.166-2.166S173.562,129.448,173.562,130.645"/>
			<path id="Fill-73" sketch:type="MSShapeGroup" fill="#1F5081" d="M175.728,133.719c-1.695,0-3.075-1.38-3.075-3.074
				c0-1.695,1.38-3.076,3.075-3.076s3.075,1.381,3.075,3.076C178.803,132.339,177.423,133.719,175.728,133.719L175.728,133.719z
				 M175.728,129.387c-0.693,0-1.256,0.564-1.256,1.258c0,0.692,0.563,1.256,1.256,1.256s1.256-0.562,1.256-1.256
				S176.421,129.387,175.728,129.387L175.728,129.387z"/>
			<path id="Fill-74" sketch:type="MSShapeGroup" fill="#FFFFFF" d="M140.138,113.391c0,1.195,0.97,2.166,2.166,2.166
				c1.196,0,2.165-0.971,2.165-2.166c0-1.197-0.969-2.166-2.165-2.166C141.108,111.225,140.138,112.193,140.138,113.391"/>
			<path id="Fill-75" sketch:type="MSShapeGroup" fill="#1F5081" d="M142.304,116.465c-1.696,0-3.075-1.38-3.075-3.074
				c0-1.697,1.379-3.076,3.075-3.076c1.695,0,3.074,1.379,3.074,3.076C145.378,115.085,143.999,116.465,142.304,116.465
				L142.304,116.465z M142.304,112.133c-0.693,0-1.257,0.564-1.257,1.258c0,0.692,0.564,1.256,1.257,1.256
				c0.693,0,1.256-0.562,1.256-1.256S142.997,112.133,142.304,112.133L142.304,112.133z"/>
			<path id="Fill-76" sketch:type="MSShapeGroup" fill="#59AFE1" d="M184.752,143.133h-44.398v-11.551l6.116,4.332l7.056-1.156
				l6.115,6.065l14.038-0.578L184.752,143.133"/>
			<path id="Fill-77" sketch:type="MSShapeGroup" fill="#FFFFFF" d="M164.972,130.932c0,1.196,0.969,2.166,2.165,2.166
				c1.196,0,2.166-0.97,2.166-2.166c0-1.195-0.97-2.164-2.166-2.164C165.941,128.768,164.972,129.736,164.972,130.932"/>
			<path id="Fill-78" sketch:type="MSShapeGroup" fill="#1F5081" d="M167.137,134.007c-1.695,0-3.075-1.379-3.075-3.073
				c0-1.697,1.38-3.076,3.075-3.076c1.696,0,3.075,1.379,3.075,3.076C170.212,132.628,168.833,134.007,167.137,134.007
				L167.137,134.007z M167.137,129.676c-0.693,0-1.256,0.563-1.256,1.258c0,0.691,0.563,1.254,1.256,1.254
				c0.693,0,1.257-0.562,1.257-1.254C168.394,130.239,167.83,129.676,167.137,129.676L167.137,129.676z"/>
		</g>
	</g>
</g>
</svg>
